<svg id="svg" version="1.1" xmlns="http://www.w3.org/2000/svg" xmlns:xlink="http://www.w3.org/1999/xlink" width="400" height="400" viewBox="0, 0, 400,400"><g id="svgg"><path id="path0" d="M248.333 0.170 C 249.862 1.177,253.675 1.546,255.286 0.843 C 257.106 0.049,256.932 -0.000,252.312 0.003 C 249.468 0.004,248.165 0.059,248.333 0.170 M264.509 0.316 C 262.965 3.202,263.847 6.831,266.841 9.909 L 268.482 11.595 268.533 16.923 L 268.583 22.250 269.208 23.559 C 271.875 29.144,279.579 29.750,282.989 24.643 C 284.071 23.023,284.333 21.908,284.333 18.925 C 284.333 15.662,284.174 15.833,287.213 15.833 C 290.817 15.833,292.578 15.252,294.356 13.476 C 298.226 9.611,297.166 3.152,292.254 0.667 L 291.101 0.083 277.892 0.038 C 264.962 -0.007,264.679 -0.001,264.509 0.316 M249.750 7.595 C 244.776 8.771,242.008 11.122,242.691 13.593 C 244.007 18.359,256.604 15.272,256.126 10.300 C 255.942 8.391,252.522 6.940,249.750 7.595 M319.427 52.015 C 316.029 52.397,313.101 54.839,312.013 58.199 L 311.814 58.814 311.032 58.317 C 306.877 55.675,300.796 57.393,298.535 61.847 C 295.053 68.707,301.059 76.494,308.482 74.744 C 309.069 74.606,309.562 74.513,309.578 74.538 C 309.613 74.590,309.744 74.949,313.308 84.750 C 314.774 88.783,316.955 94.777,318.155 98.068 C 319.354 101.360,320.316 104.060,320.293 104.068 C 315.099 105.891,312.790 112.751,315.828 117.333 C 319.146 122.338,326.189 122.879,330.102 118.430 C 330.882 117.543,332.000 115.510,332.000 114.978 C 332.000 114.575,331.979 114.571,333.203 115.238 C 339.176 118.497,346.467 114.128,346.393 107.333 C 346.329 101.496,340.477 97.016,335.134 98.713 L 334.351 98.962 333.941 97.773 C 333.715 97.119,331.980 92.346,330.085 87.167 C 328.191 81.987,326.317 76.850,325.922 75.750 C 325.527 74.650,324.858 72.790,324.435 71.617 C 323.503 69.030,323.482 69.332,324.628 68.836 C 328.450 67.183,330.510 61.882,328.936 57.750 C 328.160 55.711,325.346 52.664,324.642 53.099 C 324.527 53.170,324.493 53.145,324.560 53.038 C 324.700 52.811,323.195 52.236,322.077 52.090 C 321.622 52.030,321.100 51.960,320.917 51.934 C 320.733 51.907,320.063 51.944,319.427 52.015 M58.546 136.252 C 53.514 137.345,50.369 142.914,52.030 147.792 C 52.256 148.456,52.398 149.001,52.346 149.003 C 48.645 149.115,44.759 152.713,44.157 156.583 C 42.964 164.251,51.568 169.769,58.009 165.468 C 58.889 164.880,59.382 164.392,60.618 162.887 L 60.917 162.523 65.250 165.032 C 67.633 166.412,71.308 168.536,73.417 169.752 C 86.457 177.273,87.917 178.150,87.885 178.450 C 87.867 178.615,87.652 179.313,87.407 180.000 C 85.396 185.638,89.796 191.674,95.910 191.665 C 102.496 191.655,106.529 185.351,104.062 178.922 C 103.988 178.729,104.082 178.667,104.452 178.667 C 108.622 178.667,112.561 173.943,112.288 169.271 C 111.810 161.121,101.553 157.767,96.453 164.094 C 96.014 164.638,95.599 165.103,95.530 165.127 C 95.461 165.151,89.745 161.899,82.827 157.900 C 75.910 153.902,69.837 150.400,69.333 150.119 C 68.829 149.838,68.393 149.591,68.363 149.570 C 68.334 149.549,68.466 149.227,68.656 148.855 C 71.964 142.369,65.794 134.677,58.546 136.252 M147.605 146.245 C 142.952 147.903,142.359 157.512,146.565 163.106 C 150.713 168.626,156.387 164.936,155.949 157.003 C 155.580 150.306,151.384 144.897,147.605 146.245 M168.049 146.241 C 164.251 147.429,161.330 154.140,162.183 159.718 C 163.466 168.100,170.836 167.577,173.552 158.913 C 175.782 151.796,172.734 144.777,168.049 146.241 M132.976 164.251 C 130.786 164.955,130.467 167.261,132.233 169.608 C 134.975 173.251,140.961 175.048,143.060 172.858 C 146.152 169.630,137.967 162.644,132.976 164.251 M182.333 164.115 C 177.292 164.959,172.676 170.268,174.841 172.733 C 177.090 175.295,183.952 172.948,186.316 168.809 C 188.017 165.831,186.036 163.495,182.333 164.115 M157.520 171.188 C 153.657 171.830,151.240 174.965,151.050 179.583 L 150.961 181.750 147.170 185.583 C 143.906 188.885,143.308 189.569,142.860 190.516 C 139.632 197.349,146.737 204.462,153.483 201.148 C 154.294 200.749,155.070 200.132,156.431 198.803 C 158.839 196.452,158.659 196.449,161.153 198.886 C 162.866 200.559,163.230 200.833,164.379 201.309 C 170.873 204.002,177.269 197.834,174.912 191.154 C 174.452 189.849,173.720 188.958,170.339 185.585 L 167.000 182.253 167.000 180.316 C 167.000 174.047,163.073 170.266,157.520 171.188 M328.019 222.263 C 325.602 222.913,323.936 224.387,322.262 227.357 C 320.862 229.841,320.845 229.847,318.720 228.578 C 312.791 225.040,307.363 226.484,305.496 232.095 C 304.137 236.180,305.904 239.638,310.764 242.403 C 312.040 243.128,314.025 244.271,315.177 244.943 L 317.270 246.164 317.668 247.707 C 319.436 254.574,326.566 256.963,331.261 252.263 C 333.625 249.897,334.133 247.280,333.005 243.293 L 332.498 241.503 334.598 237.881 C 337.775 232.402,337.873 232.167,337.865 229.963 C 337.846 224.807,332.911 220.948,328.019 222.263 M345.940 246.687 C 341.679 247.294,341.100 250.641,344.821 253.155 C 349.555 256.353,356.863 255.158,355.839 251.353 C 355.072 248.507,349.988 246.110,345.940 246.687 M308.938 256.510 C 305.417 257.384,301.779 261.658,301.757 264.946 C 301.736 268.074,305.414 268.569,308.881 265.905 C 314.319 261.726,314.358 255.164,308.938 256.510 M336.849 257.366 C 331.054 258.659,333.764 271.904,340.520 275.305 C 349.163 279.658,349.553 263.468,340.932 258.211 C 339.465 257.316,338.224 257.060,336.849 257.366 M321.143 261.587 C 315.999 263.220,315.261 274.944,320.005 279.688 C 324.078 283.760,328.774 279.707,328.721 272.167 C 328.675 265.590,324.944 260.381,321.143 261.587 M32.000 273.112 C 28.204 273.715,25.106 277.062,24.582 281.125 L 24.469 282.000 12.234 282.000 L 0.000 282.000 0.000 289.500 L 0.000 297.000 12.215 297.000 L 24.431 297.000 24.705 298.451 C 26.088 305.780,34.699 308.472,39.947 303.218 C 43.416 299.745,43.354 294.239,39.805 290.618 L 38.694 289.484 39.830 288.348 C 45.994 282.184,40.627 271.740,32.000 273.112 M381.772 273.253 C 374.755 275.032,372.582 284.883,378.308 288.960 L 378.926 289.400 377.748 290.575 C 372.263 296.047,375.488 305.140,383.193 305.929 C 387.748 306.396,391.910 303.139,392.803 298.411 L 393.069 297.000 396.535 297.000 L 400.000 297.000 400.000 289.500 L 400.000 282.000 396.516 282.000 L 393.031 282.000 392.921 281.125 C 392.230 275.645,386.974 271.934,381.772 273.253 M121.000 288.584 C 112.935 290.411,111.443 301.536,118.764 305.250 C 119.306 305.525,119.779 305.767,119.815 305.787 C 119.851 305.808,119.536 306.745,119.115 307.871 C 118.694 308.996,117.263 312.917,115.936 316.583 C 112.187 326.935,109.154 335.235,109.101 335.288 C 109.074 335.315,108.459 335.214,107.734 335.064 C 101.792 333.833,96.258 339.039,97.132 345.037 C 98.017 351.112,104.389 354.545,109.833 351.880 C 111.413 351.107,111.283 351.085,111.738 352.203 C 114.633 359.326,124.392 359.911,127.981 353.176 C 130.296 348.834,128.579 343.320,124.197 341.021 C 123.617 340.717,123.176 340.381,123.217 340.276 C 123.258 340.170,124.095 337.871,125.078 335.167 C 126.061 332.462,127.265 329.162,127.754 327.833 C 128.244 326.504,129.811 322.198,131.238 318.265 C 134.222 310.037,133.798 310.910,134.702 311.135 C 143.468 313.311,149.747 302.625,143.435 296.271 C 140.433 293.248,135.458 292.608,132.323 294.841 C 131.836 295.187,131.500 295.161,131.500 294.777 C 131.500 294.279,130.294 292.165,129.524 291.312 C 127.407 288.969,124.047 287.893,121.000 288.584 M54.539 347.667 C 54.539 347.988,54.573 348.119,54.615 347.958 C 54.657 347.798,54.657 347.535,54.615 347.375 C 54.573 347.215,54.539 347.346,54.539 347.667 M257.272 372.005 C 252.863 373.326,253.713 381.037,258.833 386.165 C 266.498 393.840,273.094 387.324,267.230 377.870 C 264.753 373.875,260.126 371.150,257.272 372.005 M279.864 374.587 C 277.288 375.705,275.152 380.972,275.825 384.541 C 276.699 389.170,280.675 388.953,282.998 384.151 C 285.579 378.814,283.654 372.940,279.864 374.587 M162.058 381.333 C 162.058 382.113,162.087 382.431,162.122 382.042 C 162.157 381.652,162.157 381.015,162.122 380.625 C 162.087 380.235,162.058 380.554,162.058 381.333 M242.740 386.508 C 237.844 388.392,240.238 395.651,247.017 399.477 L 247.944 400.000 252.290 400.000 L 256.637 400.000 257.062 399.495 C 261.234 394.536,249.509 383.904,242.740 386.508 M270.044 395.752 C 268.055 396.185,265.945 397.688,265.021 399.331 L 264.645 400.000 277.364 399.961 C 284.360 399.939,287.692 399.901,284.769 399.875 L 279.454 399.829 277.899 398.342 C 275.289 395.847,273.033 395.103,270.044 395.752 " stroke="none" fill="#ddd8d3" fill-rule="evenodd"></path><path id="path1" d="M0.000 20.333 C 0.000 37.964,0.032 40.667,0.241 40.667 C 0.487 40.667,6.092 42.144,12.083 43.788 C 17.449 45.260,17.333 45.240,17.333 44.666 C 17.333 42.666,21.090 39.278,23.967 38.683 C 34.099 36.585,39.280 50.683,30.144 55.491 C 29.561 55.799,29.061 56.067,29.035 56.087 C 29.008 56.108,29.285 56.603,29.650 57.188 C 32.468 61.700,30.772 67.824,26.079 70.089 C 19.812 73.113,13.106 68.877,13.089 61.885 L 13.083 59.687 11.833 59.361 C 10.323 58.967,5.051 57.558,2.125 56.766 L -0.000 56.192 -0.000 75.096 C -0.000 91.095,0.035 94.000,0.231 94.000 C 1.270 94.000,3.149 95.888,4.076 97.863 C 6.544 103.125,4.421 109.227,0.794 107.293 L -0.000 106.870 0.005 112.560 C 0.010 117.098,0.052 118.196,0.216 117.981 C 1.355 116.484,4.786 115.999,8.155 116.860 C 10.189 117.379,10.235 117.383,10.738 117.090 C 11.020 116.925,11.588 116.600,12.000 116.367 C 12.412 116.135,13.200 115.671,13.750 115.337 C 16.244 113.823,18.833 112.492,19.743 112.257 C 24.930 110.917,29.917 114.986,29.619 120.314 C 29.410 124.064,27.805 126.000,22.708 128.650 C 22.069 128.983,22.234 129.643,23.498 131.807 C 27.214 138.169,24.025 144.768,17.250 144.739 C 13.376 144.723,11.822 143.601,9.070 138.833 C 8.355 137.596,7.297 135.762,6.718 134.758 C 5.423 132.511,5.684 132.742,3.908 132.274 C 2.116 131.802,1.285 131.463,0.551 130.903 L 0.000 130.483 0.000 171.242 L 0.000 212.000 0.732 212.000 C 4.916 212.000,7.922 215.597,8.114 220.833 L 8.202 223.250 11.577 226.667 C 16.239 231.386,16.417 231.695,16.417 235.083 C 16.417 239.602,13.061 243.000,8.601 243.000 C 5.984 243.000,4.405 242.232,1.792 239.690 L 0.000 237.947 0.000 259.974 L 0.000 282.000 12.227 282.000 L 24.454 282.000 24.564 281.042 C 25.568 272.274,37.153 269.965,41.466 277.673 C 43.497 281.300,42.488 286.521,39.292 288.927 C 38.526 289.503,38.525 289.472,39.347 290.081 C 43.253 292.971,43.608 299.406,40.068 303.159 C 34.801 308.742,25.439 305.602,24.564 297.958 L 24.454 297.000 12.227 297.000 L 0.000 297.000 0.000 348.500 L 0.000 400.000 9.643 400.000 L 19.286 400.000 19.375 398.625 C 19.984 389.140,33.463 386.843,36.683 395.676 C 37.081 396.767,37.086 396.769,38.261 396.428 C 38.713 396.297,39.983 395.954,41.083 395.667 C 42.183 395.379,43.458 395.042,43.917 394.918 C 48.215 393.750,51.278 392.922,52.250 392.664 C 56.400 391.565,60.081 390.581,63.417 389.679 L 67.250 388.643 67.250 386.530 C 67.250 375.777,82.223 373.722,84.902 384.107 C 85.552 386.623,84.539 391.235,83.150 392.094 C 83.053 392.153,83.504 392.466,84.152 392.788 C 86.643 394.027,88.513 396.572,88.933 399.292 L 89.043 400.000 107.217 400.000 L 125.391 400.000 126.437 399.581 C 129.037 398.541,131.723 398.414,133.433 399.251 C 133.928 399.493,134.333 399.761,134.333 399.846 C 134.333 399.936,135.983 400.000,138.317 400.000 L 142.301 400.000 141.964 399.125 C 140.759 395.993,141.607 393.053,144.604 389.982 L 146.167 388.380 146.170 383.315 C 146.174 378.398,146.185 378.217,146.574 377.115 C 148.516 371.612,155.760 369.979,159.809 374.132 C 161.646 376.016,162.165 377.541,162.170 381.077 C 162.176 384.316,161.961 384.124,165.667 384.202 C 168.510 384.263,168.610 384.277,169.667 384.773 C 175.953 387.725,176.213 396.172,170.115 399.327 L 168.815 400.000 184.324 400.000 L 199.833 400.000 199.833 392.083 L 199.833 384.167 199.202 384.167 C 196.528 384.167,193.175 381.966,191.871 379.356 C 187.261 370.130,199.088 361.705,206.360 369.034 C 207.460 370.142,207.473 370.150,207.715 369.785 C 211.263 364.438,220.390 365.445,223.032 371.475 C 225.513 377.136,221.394 384.167,215.596 384.167 L 214.833 384.167 214.833 392.083 L 214.833 400.000 231.285 400.000 L 247.736 400.000 246.326 399.141 C 242.159 396.602,239.384 392.037,240.233 389.116 C 242.412 381.623,258.326 389.168,257.795 397.441 C 257.739 398.317,257.619 398.818,257.389 399.134 C 257.209 399.381,257.006 399.677,256.938 399.792 C 256.840 399.956,257.640 400.000,260.720 400.000 L 264.626 400.000 264.847 399.467 C 265.466 397.972,268.088 396.081,270.130 395.657 C 273.046 395.051,275.558 395.930,278.123 398.454 L 279.346 399.657 284.548 399.747 C 287.409 399.797,301.502 399.875,315.866 399.921 L 341.982 400.006 341.494 398.930 C 340.227 396.135,340.514 393.648,342.474 390.456 L 343.166 389.328 341.833 384.385 C 340.371 378.963,340.226 377.818,340.769 375.989 C 342.592 369.841,350.138 368.109,354.407 372.858 C 355.413 373.977,355.917 375.070,356.590 377.595 C 357.324 380.349,357.287 380.332,360.417 379.405 C 366.112 377.718,371.215 380.856,371.471 386.204 C 371.686 390.712,369.328 393.630,364.417 394.932 C 363.500 395.175,361.527 395.694,360.033 396.084 C 358.539 396.475,357.294 396.822,357.267 396.856 C 357.145 397.009,355.500 399.872,355.500 399.932 C 355.500 399.970,365.512 400.000,377.750 400.000 L 400.000 400.000 400.000 348.500 L 400.000 297.000 396.523 297.000 L 393.046 297.000 392.936 297.958 C 392.206 304.334,385.386 307.913,379.684 304.914 C 374.780 302.334,373.456 295.831,376.918 291.332 C 377.340 290.783,377.738 290.331,377.801 290.328 C 377.865 290.325,378.116 290.147,378.360 289.933 L 378.803 289.542 377.599 288.313 C 372.843 283.454,374.785 275.454,381.217 273.413 C 386.520 271.730,392.072 275.169,392.868 280.629 L 393.068 282.000 396.534 282.000 L 400.000 282.000 400.000 260.000 C 400.000 238.791,399.989 238.000,399.695 238.000 C 399.527 238.000,398.615 238.757,397.668 239.682 C 395.077 242.212,393.954 242.798,391.407 242.951 C 386.637 243.238,383.000 239.761,383.000 234.913 C 383.000 231.879,383.479 231.091,388.161 226.418 L 391.833 222.753 391.837 221.335 C 391.849 215.941,394.988 212.000,399.272 212.000 L 400.000 212.000 400.000 171.283 L 400.000 130.565 399.396 129.991 C 396.292 127.040,396.177 121.983,399.141 118.840 L 400.000 117.929 400.000 112.387 L 400.000 106.845 399.337 106.214 C 395.595 102.650,395.704 94.000,399.492 94.000 L 400.000 94.000 400.000 75.110 L 400.000 56.219 398.375 55.790 C 397.481 55.554,394.350 54.714,391.417 53.924 C 383.167 51.700,383.043 51.667,382.958 51.667 C 382.915 51.667,382.746 52.023,382.583 52.458 C 380.598 57.779,373.740 59.952,369.064 56.742 C 363.438 52.880,363.923 44.313,369.943 41.210 L 371.136 40.595 370.740 40.125 C 367.636 36.436,368.801 29.897,373.052 27.147 C 379.400 23.040,387.323 27.802,386.962 35.507 L 386.887 37.098 387.985 37.356 C 388.589 37.498,391.495 38.263,394.442 39.057 C 397.389 39.851,399.846 40.500,399.900 40.500 C 399.955 40.500,400.000 31.388,400.000 20.250 L 400.000 0.000 377.695 0.000 L 355.390 0.000 355.156 0.436 C 353.675 3.204,348.746 4.471,345.427 2.938 C 344.160 2.352,342.441 0.935,342.244 0.314 C 342.147 0.008,341.475 0.000,316.530 0.009 L 290.917 0.018 291.726 0.347 C 296.146 2.140,298.102 7.435,295.870 11.562 C 294.238 14.579,291.784 15.828,287.484 15.831 C 284.378 15.834,284.500 15.727,284.499 18.430 C 284.497 21.964,283.963 23.761,282.402 25.486 C 278.534 29.763,271.577 28.785,269.162 23.626 C 268.429 22.059,268.333 21.203,268.333 16.203 L 268.333 11.617 266.917 10.148 C 263.820 6.936,263.041 3.856,264.423 0.292 C 264.577 -0.105,256.844 -0.164,256.515 0.232 C 255.548 1.397,252.101 1.612,249.583 0.664 L 248.083 0.099 231.458 0.048 L 214.833 -0.003 214.833 7.915 L 214.833 15.833 215.465 15.833 C 219.085 15.833,223.062 19.348,223.669 23.083 C 225.109 31.946,214.911 37.351,208.553 31.095 L 207.355 29.917 206.208 31.083 C 200.580 36.805,190.952 32.867,190.927 24.833 C 190.912 20.054,194.807 15.833,199.232 15.833 L 199.833 15.833 199.833 7.913 L 199.833 -0.008 183.792 0.077 C 174.969 0.123,165.333 0.219,162.379 0.289 L 157.008 0.417 155.796 1.602 C 153.429 3.917,152.279 4.417,149.333 4.415 C 146.498 4.413,143.889 2.964,142.658 0.708 L 142.272 0.000 138.377 0.000 L 134.483 0.000 134.885 0.542 C 138.042 4.794,131.029 13.125,123.624 13.918 C 117.912 14.530,115.996 9.710,119.900 4.550 C 121.123 2.935,122.124 2.101,125.103 0.218 C 125.347 0.064,121.363 0.017,107.208 0.010 L 89.000 0.000 89.000 1.101 C 89.000 10.517,75.643 13.252,71.824 4.619 C 71.293 3.418,71.219 3.328,70.833 3.417 C 70.604 3.470,68.917 3.915,67.083 4.406 C 65.250 4.896,62.288 5.685,60.500 6.159 C 58.712 6.633,56.725 7.167,56.083 7.346 C 54.983 7.653,53.373 8.085,44.623 10.423 C 41.212 11.334,41.003 11.412,41.111 11.738 C 42.156 14.881,39.864 19.877,36.582 21.611 C 28.120 26.081,19.212 15.917,24.970 8.362 C 25.391 7.810,25.311 7.511,24.741 7.503 C 23.153 7.479,19.988 3.547,19.480 0.967 L 19.290 0.000 9.645 0.000 L 0.000 0.000 0.000 20.333 M334.567 2.842 C 339.132 4.549,337.287 12.862,331.343 17.364 C 324.995 22.173,319.533 18.993,321.974 11.909 C 323.996 6.045,330.538 1.334,334.567 2.842 M254.351 8.025 C 259.301 10.326,253.894 16.239,247.090 15.965 C 241.487 15.740,240.838 11.474,245.994 8.765 C 248.571 7.411,252.316 7.080,254.351 8.025 M362.214 9.451 C 367.432 12.246,369.259 21.587,364.583 21.566 C 360.870 21.550,356.672 15.146,357.664 11.010 C 358.159 8.946,360.058 8.296,362.214 9.451 M144.945 10.805 C 148.261 12.497,147.999 18.237,144.385 23.083 C 139.316 29.880,132.045 29.946,132.125 23.194 C 132.209 16.104,140.198 8.384,144.945 10.805 M348.926 11.079 C 353.180 13.209,352.369 22.646,347.514 27.519 C 343.656 31.391,339.491 30.282,338.675 25.167 C 337.475 17.640,344.032 8.629,348.926 11.079 M157.797 12.331 C 162.362 14.403,163.551 25.114,159.287 25.753 C 157.661 25.997,155.745 24.501,154.584 22.083 C 151.936 16.566,153.912 10.568,157.797 12.331 M79.918 39.741 C 80.858 39.963,81.745 40.320,82.917 40.950 C 83.192 41.097,83.923 41.731,84.542 42.358 C 85.160 42.985,85.667 43.435,85.667 43.358 C 85.667 43.029,87.598 41.295,88.569 40.752 C 96.475 36.331,105.075 44.775,100.895 52.854 C 99.597 55.362,96.303 57.491,93.708 57.498 L 93.000 57.500 93.000 73.250 L 93.000 89.000 93.473 89.000 C 98.114 89.000,102.271 93.683,101.958 98.560 C 101.460 106.311,92.210 109.801,86.647 104.337 L 85.495 103.206 84.371 104.330 C 80.799 107.902,75.224 107.904,71.667 104.336 C 66.382 99.036,69.599 89.941,77.069 89.064 L 78.000 88.954 78.000 73.227 L 78.000 57.500 77.458 57.498 C 74.168 57.483,70.760 54.888,69.539 51.469 C 67.224 44.985,73.256 38.170,79.918 39.741 M245.295 49.920 C 251.521 53.035,254.088 65.586,249.024 68.152 C 244.752 70.317,238.954 63.861,238.558 56.500 C 238.260 50.967,241.352 47.948,245.295 49.920 M322.637 52.087 C 330.639 53.973,332.059 64.974,324.800 68.841 L 323.719 69.417 324.937 72.750 C 325.607 74.583,326.356 76.646,326.601 77.333 C 326.847 78.021,327.266 79.183,327.533 79.917 C 327.800 80.650,328.345 82.150,328.743 83.250 C 330.303 87.560,333.543 96.480,333.967 97.633 C 334.389 98.778,334.439 98.842,334.832 98.736 C 344.035 96.243,350.509 107.281,343.729 113.902 C 340.926 116.638,335.732 117.230,332.807 115.148 C 332.328 114.807,332.000 114.843,332.000 115.237 C 332.000 117.153,328.481 120.532,325.743 121.245 C 315.467 123.921,309.785 109.514,319.148 104.523 C 320.215 103.955,320.294 103.757,319.828 102.833 C 319.690 102.560,315.458 90.967,310.428 77.083 C 309.397 74.239,309.616 74.519,308.621 74.777 C 302.960 76.245,297.412 71.842,297.457 65.917 C 297.509 59.220,304.527 54.945,310.513 57.964 L 311.776 58.602 312.144 57.593 C 313.633 53.510,318.296 51.063,322.637 52.087 M265.366 57.673 C 270.268 59.034,265.397 70.642,260.066 70.302 C 254.801 69.967,258.306 58.896,264.083 57.613 C 264.633 57.491,264.725 57.495,265.366 57.673 M227.511 59.766 C 233.671 61.575,238.918 70.039,236.670 74.540 C 234.372 79.142,226.301 75.966,222.699 69.042 C 219.617 63.118,222.170 58.197,227.511 59.766 M152.533 61.186 C 158.884 62.523,161.765 70.284,157.834 75.462 C 157.467 75.945,157.167 76.373,157.167 76.414 C 157.167 76.527,179.158 98.500,179.272 98.500 C 179.327 98.500,179.641 98.264,179.969 97.976 C 183.231 95.113,188.726 95.428,191.994 98.667 C 197.756 104.378,193.632 114.002,185.423 114.000 L 183.917 113.999 183.971 115.329 C 184.314 123.734,173.881 127.895,168.228 121.607 C 165.393 118.454,165.264 113.144,167.946 110.011 C 168.250 109.655,168.500 109.335,168.500 109.301 C 168.500 109.254,146.812 87.535,146.417 87.186 C 146.377 87.151,146.076 87.358,145.748 87.646 C 142.418 90.570,136.874 90.257,133.635 86.963 C 127.994 81.224,131.929 71.687,139.944 71.670 L 141.639 71.667 141.632 70.208 C 141.605 64.307,146.828 59.985,152.533 61.186 M250.744 75.755 C 252.575 76.232,255.126 78.100,255.662 79.357 C 255.755 79.573,256.159 80.313,256.560 81.000 L 257.291 82.250 258.604 82.604 C 259.326 82.799,260.929 83.230,262.167 83.563 C 263.404 83.896,264.905 84.304,265.502 84.469 C 272.608 86.437,273.846 95.679,267.489 99.295 C 265.435 100.463,263.628 100.577,260.399 99.743 C 257.187 98.912,257.354 98.827,256.605 101.671 C 255.944 104.185,255.454 105.234,254.415 106.359 C 249.850 111.305,241.945 109.083,240.565 102.466 C 240.232 100.869,240.958 97.234,242.975 90.407 C 243.107 89.957,243.012 89.696,242.153 88.170 C 240.734 85.649,240.443 84.175,240.918 81.917 C 241.866 77.410,246.336 74.607,250.744 75.755 M227.645 81.875 C 232.056 82.796,233.420 86.229,230.196 88.292 C 226.028 90.958,218.383 89.425,218.040 85.854 C 217.748 82.823,222.587 80.818,227.645 81.875 M382.780 102.676 C 394.084 104.199,399.223 116.211,388.583 116.242 C 377.898 116.273,370.219 103.768,380.250 102.673 C 380.892 102.603,381.430 102.535,381.446 102.523 C 381.463 102.510,382.063 102.579,382.780 102.676 M382.000 121.339 C 390.083 122.610,393.033 129.010,386.917 132.003 C 382.470 134.179,375.261 133.216,372.003 130.011 C 367.234 125.320,373.385 119.985,382.000 121.339 M256.969 130.818 C 260.263 132.498,257.616 140.685,253.091 142.812 C 247.510 145.435,247.172 136.269,252.686 131.838 C 254.177 130.640,255.843 130.243,256.969 130.818 M62.713 136.262 C 68.012 137.635,70.944 143.378,68.913 148.406 C 68.429 149.606,68.352 149.495,70.500 150.712 C 71.371 151.205,75.496 153.584,79.667 155.999 C 83.837 158.413,89.116 161.467,91.396 162.784 L 95.543 165.180 95.807 164.798 C 100.875 157.486,112.262 160.775,112.373 169.583 C 112.433 174.354,109.541 177.705,104.465 178.744 L 104.013 178.836 104.331 179.578 C 106.731 185.177,102.192 191.734,95.917 191.734 C 89.033 191.734,85.024 185.118,87.896 178.498 C 87.978 178.308,87.443 177.923,85.711 176.928 C 84.449 176.202,81.842 174.697,79.917 173.582 C 67.523 166.407,61.000 162.667,60.878 162.667 C 60.801 162.667,60.615 162.873,60.465 163.125 C 57.747 167.675,50.623 168.304,46.651 164.346 C 41.597 159.309,44.240 150.548,51.233 149.158 C 52.135 148.978,52.323 148.888,52.229 148.677 C 49.237 141.933,55.586 134.415,62.713 136.262 M393.417 137.017 C 397.268 138.067,394.876 144.688,389.667 147.400 C 386.427 149.086,384.000 148.216,384.000 145.370 C 384.000 141.156,389.783 136.026,393.417 137.017 M230.393 141.757 C 232.303 142.236,232.869 142.662,236.917 146.673 L 240.750 150.472 243.000 150.538 C 250.855 150.771,254.366 159.005,248.903 164.384 C 247.426 165.839,245.335 166.498,242.186 166.502 L 240.250 166.505 236.881 169.880 C 231.618 175.153,229.178 176.070,225.226 174.260 C 219.471 171.626,218.894 165.293,223.946 160.208 C 225.976 158.165,225.983 158.276,223.682 155.963 C 221.603 153.874,220.912 152.710,220.617 150.803 C 219.737 145.122,224.869 140.372,230.393 141.757 M271.369 143.518 C 277.057 144.704,278.174 149.686,273.476 152.917 C 266.280 157.868,254.666 155.103,256.988 148.993 C 258.517 144.967,265.525 142.299,271.369 143.518 M150.430 146.352 C 155.275 148.165,157.793 158.732,154.546 163.628 C 150.596 169.583,143.285 162.746,143.717 153.500 C 143.977 147.937,146.756 144.978,150.430 146.352 M170.545 146.200 C 176.260 147.912,175.140 162.401,169.066 165.342 C 163.277 168.144,159.711 158.479,163.620 150.583 C 165.356 147.077,167.963 145.426,170.545 146.200 M319.352 153.166 C 323.058 153.854,326.435 157.737,326.490 161.376 L 326.500 162.002 342.208 161.959 L 357.917 161.917 358.020 161.000 C 358.533 156.422,362.283 153.009,366.809 153.002 C 375.005 152.989,379.048 162.540,373.323 168.390 L 372.178 169.561 372.840 170.127 C 376.862 173.571,377.072 179.664,373.296 183.393 C 367.914 188.708,358.833 185.502,358.016 178.000 L 357.917 177.083 342.232 177.041 L 326.548 176.998 326.446 177.957 C 325.956 182.563,322.133 186.000,317.500 186.000 C 308.969 186.000,305.251 175.481,311.826 169.949 L 312.368 169.492 311.892 169.122 C 304.434 163.313,309.990 151.430,319.352 153.166 M267.553 161.758 C 275.762 163.194,279.456 169.853,273.627 172.707 C 266.612 176.141,254.981 171.000,256.918 165.321 C 257.886 162.485,262.627 160.897,267.553 161.758 M137.472 164.544 C 144.164 166.911,146.230 173.833,140.245 173.833 C 133.629 173.833,127.632 165.672,133.101 164.110 C 133.893 163.884,136.275 164.120,137.472 164.544 M185.677 164.434 C 189.768 166.823,183.869 173.833,177.768 173.833 C 171.410 173.833,174.100 166.477,181.250 164.308 C 182.610 163.895,184.865 163.960,185.677 164.434 M161.382 171.335 C 165.027 172.461,166.854 175.131,166.967 179.500 L 167.034 182.083 170.569 185.667 C 173.420 188.557,174.204 189.452,174.624 190.297 C 177.323 195.719,173.507 202.000,167.513 202.000 C 164.941 202.000,163.421 201.266,160.911 198.814 C 159.890 197.816,158.918 197.000,158.750 197.000 C 158.582 197.000,157.610 197.816,156.589 198.814 C 154.085 201.261,152.553 202.002,150.011 201.998 C 144.681 201.990,140.909 197.090,142.255 191.922 C 142.730 190.102,143.239 189.430,147.167 185.447 L 150.917 181.645 151.011 179.364 C 151.258 173.347,156.003 169.673,161.382 171.335 M253.164 174.240 C 258.573 177.023,260.526 186.500,255.690 186.500 C 254.339 186.500,252.363 185.165,250.780 183.182 C 246.967 178.407,248.692 171.938,253.164 174.240 M11.984 187.325 C 16.485 189.622,16.450 200.252,11.925 204.889 C 7.053 209.883,1.825 204.523,3.242 195.988 C 4.273 189.779,8.528 185.562,11.984 187.325 M391.815 187.518 C 399.380 191.856,398.269 208.896,390.572 206.587 C 386.195 205.274,383.296 196.726,385.257 190.917 C 386.407 187.510,389.241 186.042,391.815 187.518 M26.882 205.479 C 28.385 206.408,28.434 208.818,26.986 210.562 C 26.900 210.665,26.675 210.956,26.487 211.207 C 23.958 214.581,17.080 216.012,15.589 213.475 C 13.264 209.520,22.659 202.869,26.882 205.479 M378.651 205.557 C 385.498 208.383,387.141 215.068,380.917 214.780 C 374.717 214.492,369.171 207.611,373.335 205.373 C 374.396 204.803,377.045 204.895,378.651 205.557 M258.761 207.178 C 260.659 207.520,263.468 209.279,264.149 210.550 L 264.379 210.979 265.481 209.852 C 269.517 205.725,276.194 206.210,279.351 210.860 C 283.104 216.386,279.910 223.829,273.342 224.862 L 272.000 225.074 272.000 240.764 L 272.000 256.454 272.958 256.566 C 282.439 257.672,283.907 270.802,274.909 274.015 C 271.476 275.242,265.690 273.352,264.620 270.654 C 264.549 270.477,264.490 270.467,264.384 270.615 C 259.887 276.923,250.145 275.119,248.279 267.632 C 246.988 262.457,250.652 257.141,255.896 256.579 L 257.000 256.461 257.000 240.765 L 257.000 225.068 255.643 224.870 C 248.396 223.814,245.463 214.857,250.664 209.667 C 252.836 207.500,255.686 206.624,258.761 207.178 M205.750 208.918 C 211.050 210.036,214.166 215.572,212.409 220.748 C 212.089 221.690,212.087 221.688,213.385 221.952 C 218.405 222.975,221.546 228.423,219.995 233.417 C 217.783 240.541,208.509 242.036,203.965 236.000 L 203.526 235.417 202.721 235.844 C 202.279 236.079,200.942 236.837,199.750 237.528 C 194.987 240.291,192.286 241.833,192.213 241.833 C 192.170 241.833,191.936 241.973,191.692 242.143 C 191.309 242.411,188.391 244.111,182.946 247.239 C 182.137 247.703,181.346 248.158,181.189 248.250 C 181.031 248.342,179.911 248.979,178.698 249.667 C 177.148 250.546,176.515 250.991,176.566 251.167 C 176.605 251.304,176.811 251.867,177.023 252.417 C 178.846 257.146,175.824 262.924,170.832 264.252 C 163.966 266.080,157.443 259.027,159.973 252.510 C 160.167 252.011,160.308 251.595,160.288 251.584 C 160.267 251.573,159.786 251.473,159.220 251.361 C 154.827 250.495,151.815 246.601,152.042 242.083 C 152.474 233.505,163.015 230.373,168.418 237.218 L 168.919 237.852 170.384 237.010 C 171.189 236.546,171.890 236.167,171.940 236.167 C 171.991 236.167,172.231 236.026,172.474 235.853 C 172.718 235.681,173.929 234.956,175.167 234.243 C 176.404 233.529,178.317 232.423,179.417 231.785 C 180.517 231.146,183.217 229.591,185.417 228.328 C 187.617 227.065,190.354 225.489,191.500 224.826 C 192.646 224.162,194.033 223.362,194.583 223.048 C 195.967 222.256,195.935 222.336,195.421 220.969 C 192.905 214.286,198.768 207.446,205.750 208.918 M77.993 212.260 C 82.160 214.200,85.372 220.755,84.665 225.878 C 83.339 235.498,72.992 230.535,71.670 219.645 C 71.004 214.155,74.156 210.474,77.993 212.260 M99.099 220.534 C 101.804 222.387,99.897 229.090,95.877 231.860 C 92.659 234.077,90.053 232.324,90.633 228.333 C 91.367 223.288,96.379 218.671,99.099 220.534 M60.393 222.264 C 64.622 223.355,69.120 228.294,70.012 232.828 C 71.378 239.770,64.693 241.373,58.819 235.511 C 52.251 228.957,53.265 220.426,60.393 222.264 M332.357 222.327 C 336.891 223.729,339.233 228.962,337.258 233.280 C 336.848 234.176,335.160 237.160,333.361 240.165 L 332.614 241.414 333.164 243.622 C 334.257 248.011,333.270 251.229,330.199 253.288 C 325.236 256.614,319.134 253.989,317.653 247.890 C 317.215 246.087,317.594 246.412,312.521 243.500 C 307.728 240.749,306.865 240.044,305.915 238.100 C 303.266 232.683,307.086 226.504,313.083 226.504 C 314.972 226.504,315.717 226.764,318.690 228.458 C 320.882 229.708,320.830 229.725,322.207 227.275 C 324.700 222.835,328.308 221.076,332.357 222.327 M83.960 238.320 C 86.520 239.098,87.856 240.344,89.706 243.675 L 90.312 244.766 93.364 245.574 C 99.049 247.078,99.926 247.374,101.151 248.196 C 105.178 250.900,105.794 256.836,102.399 260.231 C 99.922 262.708,97.407 263.214,93.153 262.092 C 90.242 261.324,90.367 261.258,89.661 263.943 C 88.923 266.752,88.266 268.051,86.982 269.240 C 82.389 273.492,75.286 271.375,73.725 265.287 C 73.296 263.615,73.485 262.315,74.914 257.083 L 76.189 252.417 75.698 251.500 C 75.428 250.996,74.998 250.217,74.743 249.768 C 71.345 243.798,77.369 236.315,83.960 238.320 M60.905 244.446 C 63.980 245.208,65.586 247.117,64.775 249.047 C 62.902 253.504,51.048 252.671,51.092 248.085 C 51.120 245.125,56.137 243.265,60.905 244.446 M349.463 246.742 C 353.200 247.528,356.000 249.817,356.000 252.086 C 356.000 256.543,345.434 255.844,342.717 251.208 C 340.910 248.126,344.559 245.711,349.463 246.742 M311.811 256.633 C 312.863 257.115,313.379 258.612,313.015 260.127 C 311.388 266.900,301.357 270.854,301.712 264.582 C 301.975 259.933,308.243 254.999,311.811 256.633 M340.381 257.803 C 345.969 260.554,349.409 270.736,346.069 274.638 C 342.370 278.959,334.653 272.683,333.664 264.548 C 332.977 258.901,336.147 255.719,340.381 257.803 M323.917 261.730 C 330.788 264.972,330.271 281.345,323.297 281.332 C 318.524 281.323,315.201 272.576,317.425 265.874 C 318.634 262.233,321.332 260.510,323.917 261.730 M205.486 277.703 C 208.361 278.767,209.968 280.706,210.912 284.250 C 211.794 287.563,211.512 287.386,214.613 286.591 C 220.265 285.142,224.508 287.174,225.745 291.922 C 226.975 296.645,224.300 300.673,219.000 302.079 C 210.987 304.204,211.915 303.778,210.640 305.925 C 208.516 309.502,205.891 311.067,202.500 310.778 C 196.420 310.260,193.424 304.232,196.383 298.467 L 197.470 296.350 197.086 294.883 C 196.875 294.077,196.282 291.839,195.768 289.910 C 194.724 285.995,194.630 284.977,195.138 283.143 C 196.375 278.683,201.233 276.130,205.486 277.703 M125.218 288.582 C 127.920 289.286,130.310 291.405,131.335 294.003 C 131.533 294.506,131.717 294.939,131.745 294.967 C 131.772 294.994,132.212 294.791,132.722 294.515 C 137.729 291.806,144.280 294.570,145.694 299.986 C 147.447 306.699,141.602 312.833,134.947 311.267 L 133.977 311.038 133.807 311.478 C 133.713 311.719,133.035 313.567,132.300 315.583 C 131.565 317.600,130.442 320.675,129.805 322.417 C 129.168 324.158,128.244 326.708,127.752 328.083 C 127.261 329.458,126.321 332.046,125.665 333.833 C 122.899 341.363,123.094 340.357,124.289 340.946 C 127.281 342.420,129.385 346.198,129.100 349.583 C 128.328 358.760,116.117 361.187,112.010 352.979 C 111.638 352.236,111.333 351.534,111.333 351.419 C 111.333 351.290,110.871 351.450,110.125 351.838 C 104.071 354.984,97.000 350.647,97.000 343.788 C 97.000 338.009,102.600 333.624,108.143 335.062 C 108.992 335.282,109.029 335.278,109.159 334.937 C 109.548 333.911,113.326 323.542,114.571 320.083 C 115.363 317.883,116.119 315.821,116.250 315.500 C 116.381 315.179,116.988 313.529,117.598 311.833 C 118.209 310.137,118.924 308.157,119.188 307.433 C 119.793 305.767,119.840 305.945,118.628 305.301 C 109.346 300.376,115.040 285.931,125.218 288.582 M182.675 297.130 C 189.116 299.420,186.826 304.667,179.386 304.667 C 171.654 304.667,169.638 298.547,176.833 296.917 C 178.344 296.575,181.430 296.687,182.675 297.130 M280.250 297.480 C 285.933 300.087,281.091 312.482,273.511 314.731 C 268.678 316.166,266.124 311.746,268.414 305.911 C 270.688 300.119,276.687 295.845,280.250 297.480 M257.444 300.013 C 260.329 301.410,262.307 307.336,261.084 310.917 C 259.246 316.296,253.297 312.113,252.883 305.151 C 252.632 300.927,254.645 298.658,257.444 300.013 M340.917 309.227 C 346.264 310.659,349.065 316.543,346.856 321.698 L 346.522 322.477 349.386 324.141 C 356.647 328.360,361.653 331.252,362.417 331.670 C 362.875 331.921,364.375 332.783,365.750 333.586 C 367.125 334.389,369.449 335.733,370.913 336.573 L 373.577 338.099 374.178 337.341 C 374.681 336.706,375.626 335.799,376.435 335.174 C 379.779 332.588,385.830 333.557,388.532 337.111 C 391.342 340.806,391.079 345.815,387.905 349.065 C 386.590 350.412,384.055 351.667,382.649 351.667 C 382.074 351.667,382.073 351.670,382.513 352.828 C 384.264 357.434,381.386 362.960,376.510 364.354 C 369.405 366.386,363.058 359.648,365.500 352.667 C 365.773 351.887,365.997 351.235,365.998 351.216 C 366.001 351.167,358.318 346.707,355.500 345.123 C 355.179 344.942,354.054 344.287,353.000 343.667 C 351.946 343.046,350.821 342.392,350.500 342.212 C 350.179 342.032,347.493 340.486,344.531 338.776 C 338.295 335.175,339.049 335.440,338.190 336.553 C 333.790 342.256,324.700 340.564,322.498 333.631 C 320.906 328.620,324.138 323.119,329.250 322.141 C 329.800 322.035,330.274 321.930,330.303 321.907 C 330.333 321.884,330.201 321.363,330.012 320.749 C 327.920 313.977,334.135 307.411,340.917 309.227 M189.300 309.983 C 191.263 310.984,192.162 313.810,191.348 316.417 C 190.172 320.184,187.734 323.405,184.614 325.315 C 178.971 328.767,174.423 325.843,176.088 319.833 C 177.862 313.432,185.256 307.920,189.300 309.983 M295.000 312.103 C 300.290 315.081,294.498 324.537,286.267 326.362 C 277.807 328.237,276.631 319.752,284.566 314.089 C 288.000 311.639,292.616 310.760,295.000 312.103 M61.583 316.245 C 63.419 316.995,64.392 319.343,64.009 322.098 C 62.658 331.808,50.491 338.220,49.001 330.007 C 47.795 323.356,56.278 314.078,61.583 316.245 M215.673 316.101 C 221.327 317.780,224.251 328.667,219.049 328.667 C 213.772 328.667,209.085 317.303,213.833 316.021 C 214.648 315.801,214.667 315.802,215.673 316.101 M202.696 317.871 C 206.933 318.848,207.323 327.431,203.382 332.968 C 198.532 339.782,192.199 337.490,192.998 329.212 C 193.645 322.507,198.447 316.892,202.696 317.871 M38.583 318.726 C 41.276 319.986,43.263 324.730,42.678 328.500 C 42.086 332.314,39.517 333.307,36.965 330.709 C 32.463 326.125,33.767 316.474,38.583 318.726 M268.359 321.441 C 274.182 324.049,275.032 330.325,270.238 335.320 L 268.667 336.957 268.665 341.937 C 268.663 345.717,268.607 347.101,268.430 347.683 C 266.404 354.358,257.709 355.597,253.869 349.757 C 252.923 348.318,252.667 347.148,252.667 344.258 C 252.667 340.999,252.906 341.224,249.333 341.128 C 246.330 341.048,245.305 340.811,243.929 339.877 C 238.272 336.039,239.448 327.576,245.943 325.388 C 246.596 325.168,247.802 325.097,252.278 325.016 L 257.805 324.917 259.115 323.654 C 261.989 320.883,265.329 320.083,268.359 321.441 M75.042 330.398 C 79.655 331.483,79.387 337.181,74.522 341.484 C 67.666 347.546,58.787 346.203,60.810 339.411 C 62.420 334.006,69.993 329.209,75.042 330.398 M288.869 333.149 C 296.305 335.300,296.475 341.727,289.083 341.284 C 281.340 340.821,277.582 334.086,284.333 332.771 C 285.148 332.612,287.767 332.831,288.869 333.149 M49.520 340.150 C 55.206 342.323,56.406 349.100,51.930 353.765 L 50.505 355.250 50.499 360.000 C 50.491 366.983,50.207 368.161,48.015 370.342 C 44.143 374.193,37.662 373.127,35.203 368.235 C 34.512 366.859,34.333 365.829,34.333 363.213 C 34.333 360.192,34.476 360.333,31.426 360.333 C 27.794 360.333,26.012 359.698,24.203 357.760 C 20.173 353.441,21.857 346.691,27.482 344.622 C 28.332 344.309,28.885 344.272,33.581 344.206 L 38.745 344.134 40.429 342.511 C 43.288 339.758,46.387 338.953,49.520 340.150 M70.417 352.010 C 74.822 353.373,77.136 356.504,75.291 358.606 C 72.221 362.103,62.196 359.055,62.170 354.617 C 62.155 352.045,66.297 350.736,70.417 352.010 M261.512 372.523 C 267.111 375.182,271.036 383.099,268.910 387.445 C 266.813 391.731,259.907 389.308,256.258 383.005 C 252.101 375.824,255.247 369.547,261.512 372.523 M282.640 374.782 C 285.737 377.144,283.911 385.968,279.974 387.662 C 275.056 389.778,274.002 379.782,278.684 375.430 C 280.132 374.085,281.444 373.870,282.640 374.782 M128.038 384.322 C 135.382 386.200,136.126 392.546,129.000 392.535 C 123.618 392.527,118.872 388.648,120.659 385.717 C 121.615 384.150,124.920 383.524,128.038 384.322 M327.250 389.752 C 330.786 390.498,332.707 392.628,331.672 394.657 C 329.798 398.330,320.556 398.441,318.347 394.817 C 316.473 391.744,321.942 388.632,327.250 389.752 " stroke="none" fill="#fbfbfb" fill-rule="evenodd"></path><path id="path2" d="M124.667 0.614 C 124.254 0.859,123.879 1.109,123.833 1.172 C 123.787 1.234,123.553 1.390,123.311 1.517 C 119.334 3.626,116.760 9.508,118.664 12.136 C 122.861 17.931,138.044 8.077,135.244 1.376 C 134.714 0.109,134.968 0.166,129.933 0.168 L 125.417 0.170 124.667 0.614 M142.598 0.375 C 144.973 4.578,151.381 5.773,154.583 2.610 C 154.691 2.504,155.072 2.147,155.431 1.817 C 155.790 1.487,156.304 0.981,156.573 0.692 L 157.062 0.167 149.771 0.167 C 143.987 0.167,142.505 0.210,142.598 0.375 M141.329 10.726 C 138.691 11.438,135.301 14.582,133.667 17.833 C 129.299 26.522,135.365 31.683,142.335 25.208 C 149.210 18.821,148.513 8.788,141.329 10.726 M155.136 12.580 C 152.016 14.700,153.705 23.456,157.598 25.341 C 162.227 27.581,163.494 18.105,159.171 13.569 C 157.807 12.137,156.323 11.774,155.136 12.580 M375.722 26.077 C 369.510 27.824,366.905 35.744,371.047 40.289 L 371.387 40.661 370.783 40.914 C 366.698 42.621,364.397 47.099,365.436 51.323 C 367.481 59.641,379.047 60.561,382.339 52.667 C 382.549 52.163,382.765 51.699,382.819 51.636 C 382.928 51.508,383.195 51.575,392.750 54.152 C 396.508 55.166,399.640 55.997,399.710 55.998 C 399.780 55.999,399.817 52.538,399.793 48.307 L 399.750 40.615 397.083 39.894 C 395.617 39.498,392.668 38.710,390.530 38.143 C 386.756 37.142,386.647 37.101,386.741 36.727 C 388.318 30.442,381.981 24.317,375.722 26.077 M25.000 38.690 C 23.471 38.827,21.683 39.465,20.704 40.224 C 19.208 41.383,17.333 44.014,17.333 44.954 C 17.333 45.278,12.313 44.102,6.833 42.492 C 6.513 42.398,4.900 41.961,3.250 41.521 L 0.250 40.721 0.207 48.387 C 0.183 52.603,0.194 56.082,0.231 56.119 C 0.268 56.156,1.412 56.477,2.774 56.831 C 4.136 57.185,6.779 57.892,8.647 58.401 C 10.515 58.910,12.297 59.374,12.607 59.432 C 13.344 59.570,13.350 59.589,13.132 60.905 C 12.381 65.441,16.012 70.211,20.720 70.871 C 28.330 71.939,33.674 63.463,29.426 57.064 C 28.711 55.988,28.702 55.889,29.303 55.757 C 30.707 55.448,32.967 53.376,33.826 51.611 C 36.968 45.154,32.118 38.055,25.000 38.690 M9.417 187.148 C 8.206 187.464,7.120 188.257,5.860 189.744 C 0.427 196.153,3.718 209.379,9.960 206.221 C 17.262 202.526,16.769 185.227,9.417 187.148 M388.250 187.382 C 384.785 189.042,383.625 195.601,385.836 201.034 C 389.292 209.526,396.799 208.028,396.867 198.833 C 396.920 191.667,392.253 185.464,388.250 187.382 M22.529 205.328 C 16.762 206.886,13.199 212.544,16.833 214.373 C 19.626 215.778,25.514 213.180,27.376 209.722 C 29.126 206.471,26.640 204.218,22.529 205.328 M374.319 205.146 C 371.379 205.764,371.288 208.830,374.128 211.597 C 378.272 215.633,384.917 215.826,384.624 211.900 C 384.354 208.296,378.280 204.315,374.319 205.146 M201.667 209.088 C 198.377 209.998,196.343 212.068,195.190 215.678 C 194.836 216.786,194.958 219.276,195.430 220.583 C 196.117 222.487,196.144 222.346,194.966 222.983 C 194.389 223.295,193.317 223.903,192.583 224.335 C 191.850 224.767,189.188 226.303,186.667 227.747 C 184.146 229.192,181.616 230.665,181.046 231.020 C 180.475 231.376,179.981 231.667,179.948 231.667 C 179.900 231.667,173.975 235.056,172.083 236.167 C 169.109 237.913,168.794 238.055,168.622 237.731 C 167.071 234.804,162.459 232.948,158.941 233.835 C 149.533 236.206,149.970 249.351,159.522 251.322 L 160.461 251.516 160.041 252.716 C 158.691 256.573,160.485 261.255,164.077 263.248 C 171.265 267.238,179.433 260.509,176.971 252.625 C 176.778 252.006,176.556 251.500,176.477 251.500 C 176.047 251.500,176.414 250.850,177.042 250.497 C 177.431 250.278,178.012 249.919,178.333 249.700 C 178.654 249.480,179.075 249.238,179.268 249.163 C 179.461 249.088,180.811 248.335,182.268 247.490 C 183.725 246.644,186.117 245.263,187.583 244.419 C 192.496 241.595,195.727 239.726,198.833 237.912 C 200.529 236.921,202.300 235.898,202.769 235.638 L 203.622 235.166 204.049 235.812 C 206.976 240.235,213.354 240.976,217.354 237.358 C 222.821 232.415,220.183 223.196,212.947 221.956 L 211.871 221.772 212.160 221.094 C 214.956 214.536,208.534 207.188,201.667 209.088 M0.167 224.978 L 0.167 237.956 1.961 239.690 C 7.087 244.642,13.724 243.682,15.952 237.667 C 17.356 233.875,16.437 231.664,11.342 226.585 L 8.000 223.253 8.000 221.162 C 8.000 215.976,4.766 212.000,0.548 212.000 L 0.167 212.000 0.167 224.978 M398.017 212.264 C 394.180 213.296,392.009 216.448,392.002 220.995 L 392.000 222.741 388.184 226.579 C 385.393 229.387,384.252 230.651,383.933 231.289 C 381.220 236.717,384.909 242.808,390.940 242.858 C 393.477 242.879,394.909 242.182,397.607 239.611 C 398.537 238.725,399.418 238.000,399.566 238.000 C 399.809 238.000,399.833 236.829,399.833 225.000 L 399.833 212.000 399.375 212.011 C 399.123 212.017,398.512 212.131,398.017 212.264 M277.509 297.347 C 272.768 297.997,267.413 305.106,267.699 310.369 C 268.179 319.192,280.400 313.878,282.424 303.966 C 283.320 299.580,281.278 296.831,277.509 297.347 M254.719 300.088 C 252.375 301.493,252.414 307.125,254.792 310.723 C 256.998 314.061,259.965 314.062,260.995 310.725 C 262.614 305.485,258.199 298.002,254.719 300.088 M290.396 311.671 C 280.621 313.429,274.932 325.960,283.680 326.466 C 291.260 326.905,300.070 317.129,295.876 312.931 C 294.697 311.751,292.615 311.272,290.396 311.671 M58.354 316.263 C 51.691 318.055,46.501 328.573,50.330 332.525 C 53.874 336.182,61.802 330.620,63.690 323.152 C 64.888 318.414,62.382 315.179,58.354 316.263 M35.969 318.913 C 33.890 320.326,33.779 325.403,35.751 328.929 C 38.348 333.574,42.433 332.828,42.638 327.672 C 42.855 322.181,38.868 316.943,35.969 318.913 M262.758 321.342 C 261.427 321.813,260.317 322.580,258.921 323.991 L 257.759 325.167 252.504 325.169 C 245.819 325.171,244.712 325.449,242.609 327.654 C 238.737 331.713,240.068 338.059,245.294 340.459 C 246.187 340.869,246.443 340.903,249.167 340.965 C 252.892 341.049,252.666 340.870,252.670 343.734 C 252.680 351.244,258.201 355.481,264.164 352.555 C 267.804 350.769,268.664 348.612,268.666 341.266 L 268.667 336.781 270.258 335.142 C 272.920 332.398,273.778 329.689,272.920 326.736 C 271.663 322.414,266.888 319.879,262.758 321.342 M71.204 330.578 C 65.879 331.782,60.675 336.973,60.674 341.083 C 60.673 346.785,69.071 346.687,74.916 340.917 C 80.732 335.175,78.490 328.930,71.204 330.578 M283.858 333.013 C 280.156 333.740,280.001 337.314,283.577 339.481 C 290.054 343.407,297.792 340.111,292.965 335.482 C 290.886 333.488,286.915 332.411,283.858 333.013 M45.417 339.833 C 43.392 340.149,42.032 340.985,39.755 343.315 L 38.760 344.333 34.005 344.336 C 27.885 344.339,26.929 344.542,24.893 346.269 C 20.792 349.746,21.412 356.494,26.078 359.164 C 27.447 359.947,28.600 360.167,31.339 360.167 C 34.619 360.167,34.500 360.044,34.500 363.439 C 34.500 366.271,34.690 367.183,35.594 368.678 C 38.305 373.166,44.408 373.897,48.033 370.168 C 50.117 368.023,50.327 367.142,50.337 360.500 L 50.345 355.250 51.743 353.799 C 54.571 350.864,55.316 347.385,53.781 344.279 C 52.194 341.068,48.858 339.295,45.417 339.833 M64.917 351.900 C 61.052 353.122,61.536 356.627,65.868 358.797 C 70.915 361.326,76.907 359.628,75.650 356.025 C 75.550 355.736,75.400 355.500,75.317 355.500 C 75.234 355.500,75.167 355.393,75.167 355.263 C 75.167 354.872,73.393 353.415,72.220 352.844 C 70.004 351.763,66.700 351.336,64.917 351.900 M152.606 372.015 C 149.559 372.638,146.894 375.314,146.334 378.314 C 146.242 378.808,146.167 381.312,146.167 383.878 L 146.167 388.544 144.503 390.271 C 141.787 393.091,140.960 396.028,142.020 399.083 L 142.251 399.750 155.450 399.793 C 170.493 399.841,169.481 399.931,171.424 398.371 C 176.334 394.427,175.017 386.763,169.064 384.649 C 168.276 384.369,167.536 384.283,165.293 384.211 C 161.849 384.100,162.105 384.347,162.060 381.088 C 162.015 377.815,161.726 376.764,160.346 374.873 C 158.784 372.731,155.335 371.458,152.606 372.015 M123.146 384.307 C 117.085 385.889,121.696 392.360,128.917 392.406 C 133.602 392.436,135.381 389.677,132.512 386.827 C 130.304 384.633,126.164 383.520,123.146 384.307 M128.039 399.164 C 125.830 399.752,126.003 399.813,130.058 399.866 C 133.993 399.918,134.373 399.868,133.489 399.411 C 132.286 398.789,129.859 398.679,128.039 399.164 " stroke="none" fill="#f4dccc" fill-rule="evenodd"></path><path id="path3" d="M19.502 0.459 C 19.511 2.716,21.817 5.947,24.289 7.167 L 25.472 7.750 25.093 8.250 C 21.463 13.040,23.642 20.250,29.297 22.155 C 35.379 24.203,41.325 19.701,41.138 13.189 L 41.083 11.294 43.083 10.752 C 44.183 10.454,46.696 9.782,48.667 9.258 C 50.637 8.734,54.575 7.679,57.417 6.914 C 69.125 3.762,70.927 3.283,71.140 3.267 C 71.265 3.257,71.521 3.669,71.723 4.204 C 73.541 9.012,79.274 11.200,84.000 8.889 C 86.966 7.439,89.140 3.969,88.967 0.962 L 88.917 0.083 54.208 0.043 L 19.500 0.002 19.502 0.459 M129.903 0.125 C 133.143 0.159,134.462 0.229,134.653 0.378 C 134.886 0.559,134.890 0.549,134.688 0.292 C 134.479 0.025,134.073 0.003,129.938 0.039 L 125.417 0.078 129.903 0.125 M149.738 0.125 L 157.059 0.170 156.571 0.710 L 156.083 1.250 156.603 0.781 L 157.123 0.312 161.520 0.315 C 163.938 0.316,166.404 0.256,167.000 0.181 C 167.614 0.104,162.529 0.053,155.250 0.063 C 148.192 0.072,145.711 0.100,149.738 0.125 M155.324 1.958 L 154.750 2.583 155.375 2.009 C 155.957 1.474,156.077 1.333,155.949 1.333 C 155.922 1.333,155.640 1.615,155.324 1.958 M135.542 2.917 C 135.544 3.283,135.578 3.414,135.618 3.206 C 135.658 2.999,135.656 2.699,135.615 2.540 C 135.573 2.380,135.540 2.550,135.542 2.917 M268.407 16.083 C 268.407 18.650,268.430 19.677,268.458 18.365 C 268.486 17.053,268.486 14.953,268.458 13.698 C 268.430 12.443,268.407 13.517,268.407 16.083 M136.411 13.875 L 135.417 14.917 136.458 13.922 C 137.031 13.375,137.500 12.906,137.500 12.880 C 137.500 12.757,137.336 12.907,136.411 13.875 M284.406 16.385 C 284.360 16.505,284.344 17.498,284.370 18.593 L 284.418 20.583 284.501 18.375 C 284.582 16.196,284.571 15.955,284.406 16.385 M153.375 16.917 C 153.377 17.283,153.411 17.414,153.451 17.206 C 153.491 16.999,153.490 16.699,153.448 16.540 C 153.406 16.380,153.374 16.550,153.375 16.917 M161.885 20.750 C 161.886 21.300,161.917 21.505,161.954 21.205 C 161.991 20.906,161.990 20.456,161.952 20.205 C 161.914 19.955,161.884 20.200,161.885 20.750 M142.667 24.917 C 142.262 25.329,141.968 25.667,142.014 25.667 C 142.060 25.667,142.428 25.329,142.833 24.917 C 143.238 24.504,143.532 24.167,143.486 24.167 C 143.440 24.167,143.072 24.504,142.667 24.917 M377.711 25.786 C 377.964 25.825,378.339 25.824,378.544 25.784 C 378.749 25.744,378.542 25.713,378.083 25.714 C 377.625 25.716,377.457 25.748,377.711 25.786 M25.294 38.618 C 25.501 38.658,25.801 38.656,25.960 38.615 C 26.120 38.573,25.950 38.540,25.583 38.542 C 25.217 38.544,25.086 38.578,25.294 38.618 M399.750 48.349 C 399.750 52.649,399.806 56.167,399.875 56.167 C 399.944 56.167,400.000 52.684,400.000 48.427 C 400.000 44.169,399.944 40.652,399.875 40.609 C 399.806 40.567,399.750 44.050,399.750 48.349 M0.077 48.417 C 0.077 52.725,0.098 54.511,0.125 52.386 C 0.151 50.262,0.151 46.737,0.125 44.553 C 0.099 42.370,0.077 44.108,0.077 48.417 M241.961 49.489 C 236.809 51.153,237.856 62.516,243.571 66.963 C 250.697 72.509,254.738 62.072,248.867 53.283 C 247.010 50.501,243.980 48.837,241.961 49.489 M263.294 57.919 C 258.918 59.526,255.850 67.371,258.650 69.792 C 260.214 71.144,263.173 69.861,265.233 66.936 C 268.755 61.934,267.555 56.354,263.294 57.919 M224.247 59.800 C 221.891 60.615,220.966 62.656,221.576 65.689 C 223.566 75.580,237.041 81.071,237.063 72.000 C 237.078 65.610,229.182 58.094,224.247 59.800 M148.583 61.305 C 144.230 62.431,141.422 66.210,141.702 70.567 L 141.781 71.798 140.511 71.711 C 132.547 71.165,128.022 80.843,133.488 86.732 C 136.683 90.174,142.547 90.527,145.809 87.474 L 146.367 86.951 157.498 98.081 L 168.629 109.211 167.840 110.314 C 162.471 117.824,170.072 127.366,178.597 123.817 C 181.964 122.415,184.286 118.549,183.946 114.910 L 183.851 113.889 185.134 113.961 C 190.850 114.279,195.512 109.005,194.431 103.442 C 193.121 96.706,185.041 93.729,179.934 98.101 L 179.261 98.677 168.104 87.520 C 157.269 76.686,156.955 76.354,157.254 76.056 C 163.259 70.060,156.856 59.166,148.583 61.305 M247.333 75.687 C 241.660 76.600,239.176 82.693,242.241 88.179 L 243.178 89.857 242.568 92.137 C 240.341 100.453,240.235 101.075,240.734 102.948 C 242.330 108.943,249.605 110.994,253.990 106.686 C 255.292 105.406,255.713 104.607,256.415 102.083 C 256.746 100.892,257.056 99.785,257.103 99.625 C 257.298 98.965,257.734 98.963,260.124 99.605 C 262.852 100.338,264.335 100.394,266.018 99.827 C 273.574 97.282,273.283 86.882,265.592 84.591 C 264.854 84.371,262.787 83.804,261.000 83.331 C 259.212 82.859,257.631 82.439,257.486 82.400 C 257.340 82.360,256.780 81.539,256.241 80.574 C 254.082 76.711,251.108 75.079,247.333 75.687 M223.083 81.763 C 222.900 81.808,222.412 81.927,222.000 82.029 C 217.596 83.116,216.705 86.878,220.447 88.590 C 222.473 89.517,226.317 89.805,228.167 89.168 C 233.040 87.491,233.254 83.901,228.583 82.180 C 227.602 81.819,223.986 81.545,223.083 81.763 M314.385 112.583 C 314.386 113.133,314.417 113.338,314.454 113.039 C 314.491 112.739,314.490 112.289,314.452 112.039 C 314.414 111.788,314.384 112.033,314.385 112.583 M315.578 153.245 C 308.476 154.791,306.154 163.399,311.438 168.592 L 312.464 169.601 311.880 170.002 C 309.803 171.425,308.354 174.734,308.562 177.583 C 309.333 188.185,324.328 188.873,326.305 178.398 L 326.569 177.000 342.251 177.000 L 357.932 177.000 358.129 178.349 C 358.876 183.473,363.951 186.930,368.983 185.744 C 375.871 184.120,378.234 175.707,373.215 170.679 L 371.979 169.441 372.531 169.013 C 378.938 164.040,375.720 153.796,367.522 153.067 C 362.826 152.650,358.027 156.880,358.003 161.458 L 358.000 162.000 342.270 162.000 L 326.541 162.000 326.356 160.761 C 325.592 155.620,320.614 152.149,315.578 153.245 M157.575 197.708 L 156.917 198.417 157.625 197.758 C 158.284 197.145,158.410 197.000,158.284 197.000 C 158.257 197.000,157.938 197.319,157.575 197.708 M160.583 198.500 C 161.405 199.325,162.114 200.000,162.160 200.000 C 162.206 200.000,161.571 199.325,160.750 198.500 C 159.929 197.675,159.219 197.000,159.174 197.000 C 159.128 197.000,159.762 197.675,160.583 198.500 M3.039 197.833 C 3.039 198.154,3.073 198.285,3.115 198.125 C 3.157 197.965,3.157 197.702,3.115 197.542 C 3.073 197.381,3.039 197.512,3.039 197.833 M7.794 206.785 C 8.001 206.824,8.301 206.823,8.460 206.781 C 8.620 206.739,8.450 206.707,8.083 206.709 C 7.717 206.711,7.586 206.745,7.794 206.785 M391.627 206.785 C 391.834 206.824,392.134 206.823,392.294 206.781 C 392.453 206.739,392.283 206.707,391.917 206.709 C 391.550 206.711,391.420 206.745,391.627 206.785 M0.079 225.000 C 0.079 232.196,0.100 235.140,0.125 231.542 C 0.150 227.944,0.150 222.056,0.125 218.458 C 0.100 214.860,0.079 217.804,0.079 225.000 M399.913 225.000 C 399.913 232.196,399.933 235.140,399.958 231.542 C 399.983 227.944,399.983 222.056,399.958 218.458 C 399.933 214.860,399.913 217.804,399.913 225.000 M5.500 214.250 C 5.811 214.571,6.103 214.833,6.149 214.833 C 6.195 214.833,5.978 214.571,5.667 214.250 C 5.356 213.929,5.064 213.667,5.018 213.667 C 4.972 213.667,5.189 213.929,5.500 214.250 M194.887 217.833 C 194.887 218.429,194.917 218.673,194.954 218.375 C 194.991 218.077,194.991 217.590,194.954 217.292 C 194.917 216.994,194.887 217.237,194.887 217.833 M388.249 226.375 L 384.583 230.083 388.292 226.418 C 390.331 224.402,392.000 222.733,392.000 222.710 C 392.000 222.591,391.654 222.929,388.249 226.375 M324.240 224.375 L 323.750 224.917 324.292 224.427 C 324.797 223.971,324.910 223.833,324.781 223.833 C 324.752 223.833,324.509 224.077,324.240 224.375 M9.917 225.167 C 10.368 225.625,10.775 226.000,10.821 226.000 C 10.867 226.000,10.535 225.625,10.083 225.167 C 9.632 224.708,9.225 224.333,9.179 224.333 C 9.133 224.333,9.465 224.708,9.917 225.167 M11.660 226.875 C 12.068 227.310,12.425 227.667,12.451 227.667 C 12.577 227.667,12.444 227.517,11.708 226.826 L 10.917 226.083 11.660 226.875 M13.583 228.833 C 14.128 229.383,14.610 229.833,14.656 229.833 C 14.702 229.833,14.294 229.383,13.750 228.833 C 13.206 228.283,12.723 227.833,12.677 227.833 C 12.631 227.833,13.039 228.283,13.583 228.833 M305.045 234.500 C 305.045 234.912,305.078 235.081,305.118 234.875 C 305.157 234.669,305.157 234.331,305.118 234.125 C 305.078 233.919,305.045 234.088,305.045 234.500 M154.575 236.208 L 153.917 236.917 154.625 236.258 C 155.015 235.895,155.333 235.577,155.333 235.550 C 155.333 235.423,155.188 235.550,154.575 236.208 M167.326 236.208 C 168.017 236.944,168.167 237.077,168.167 236.951 C 168.167 236.925,167.810 236.568,167.375 236.160 L 166.583 235.417 167.326 236.208 M217.740 237.042 L 217.250 237.583 217.792 237.094 C 218.297 236.638,218.410 236.500,218.281 236.500 C 218.252 236.500,218.009 236.744,217.740 237.042 M396.073 241.042 L 395.583 241.583 396.125 241.094 C 396.630 240.638,396.743 240.500,396.615 240.500 C 396.586 240.500,396.342 240.744,396.073 241.042 M7.958 242.954 C 8.256 242.991,8.744 242.991,9.042 242.954 C 9.340 242.917,9.096 242.887,8.500 242.887 C 7.904 242.887,7.660 242.917,7.958 242.954 M390.127 242.951 C 390.334 242.991,390.634 242.990,390.794 242.948 C 390.953 242.906,390.783 242.874,390.417 242.875 C 390.050 242.877,389.920 242.911,390.127 242.951 M350.875 255.115 C 351.035 255.157,351.298 255.157,351.458 255.115 C 351.619 255.073,351.488 255.039,351.167 255.039 C 350.846 255.039,350.715 255.073,350.875 255.115 M162.083 261.833 C 162.441 262.200,162.772 262.500,162.818 262.500 C 162.863 262.500,162.608 262.200,162.250 261.833 C 161.892 261.467,161.562 261.167,161.516 261.167 C 161.470 261.167,161.725 261.467,162.083 261.833 M333.539 263.167 C 333.539 263.487,333.573 263.619,333.615 263.458 C 333.657 263.298,333.657 263.035,333.615 262.875 C 333.573 262.715,333.539 262.846,333.539 263.167 M310.406 264.542 L 309.917 265.083 310.458 264.594 C 310.963 264.138,311.077 264.000,310.948 264.000 C 310.919 264.000,310.675 264.244,310.406 264.542 M316.718 270.417 C 316.719 270.967,316.750 271.172,316.787 270.872 C 316.825 270.572,316.824 270.122,316.786 269.872 C 316.748 269.622,316.717 269.867,316.718 270.417 M200.741 277.567 C 197.725 278.512,195.465 281.099,194.991 284.149 C 194.752 285.694,194.842 286.196,196.396 291.917 L 197.618 296.417 197.132 297.250 C 193.883 302.820,194.895 307.600,199.823 309.971 C 203.836 311.901,207.988 310.287,210.669 305.756 L 211.750 303.929 214.083 303.318 C 219.614 301.868,220.464 301.623,221.318 301.236 C 226.332 298.964,227.516 292.301,223.597 288.410 C 221.226 286.055,218.471 285.544,214.417 286.706 C 211.649 287.499,211.727 287.541,211.024 284.873 C 209.502 279.096,205.328 276.130,200.741 277.567 M177.833 296.840 C 173.227 297.418,171.054 300.416,173.527 302.782 C 176.072 305.214,182.546 305.264,185.195 302.872 C 188.559 299.832,183.970 296.072,177.833 296.840 M113.875 297.417 C 113.877 297.783,113.911 297.914,113.951 297.706 C 113.991 297.499,113.990 297.199,113.948 297.040 C 113.906 296.880,113.874 297.050,113.875 297.417 M280.833 297.885 C 280.833 297.914,281.077 298.158,281.375 298.427 L 281.917 298.917 281.427 298.375 C 280.971 297.870,280.833 297.757,280.833 297.885 M271.991 300.458 L 271.417 301.083 272.042 300.509 C 272.385 300.193,272.667 299.912,272.667 299.884 C 272.667 299.757,272.526 299.877,271.991 300.458 M26.667 302.885 C 26.667 302.914,26.910 303.158,27.208 303.427 L 27.750 303.917 27.260 303.375 C 26.804 302.870,26.667 302.757,26.667 302.885 M252.888 304.583 C 252.889 305.225,252.919 305.467,252.955 305.121 C 252.991 304.775,252.990 304.250,252.954 303.955 C 252.917 303.659,252.887 303.942,252.888 304.583 M143.242 308.875 L 142.583 309.583 143.292 308.925 C 143.681 308.562,144.000 308.243,144.000 308.216 C 144.000 308.090,143.855 308.216,143.242 308.875 M336.049 309.404 C 331.154 310.989,328.403 316.329,330.124 320.905 C 330.563 322.072,330.627 321.958,329.402 322.180 C 325.352 322.914,322.167 326.735,322.167 330.860 C 322.167 339.775,333.506 343.272,338.613 335.933 L 338.950 335.449 344.517 338.668 C 347.578 340.438,351.246 342.559,352.667 343.380 C 354.087 344.201,355.738 345.157,356.333 345.504 C 356.929 345.851,358.879 346.975,360.667 348.002 C 362.454 349.029,364.414 350.165,365.021 350.525 L 366.126 351.180 365.625 352.465 C 362.821 359.655,370.000 366.858,377.174 364.054 C 381.810 362.242,384.130 357.059,382.340 352.516 C 382.099 351.906,382.063 351.663,382.211 351.655 C 389.798 351.241,393.201 341.336,387.537 336.153 C 383.569 332.521,376.634 333.320,374.033 337.708 C 373.683 338.300,373.843 338.344,371.559 337.028 C 370.473 336.402,369.246 335.699,368.833 335.465 C 368.421 335.232,366.883 334.346,365.417 333.497 C 359.963 330.341,358.380 329.425,356.917 328.583 C 353.438 326.579,350.981 325.159,349.417 324.246 C 348.500 323.711,347.436 323.096,347.053 322.879 L 346.355 322.484 346.746 321.700 C 350.090 314.991,343.212 307.084,336.049 309.404 M185.333 309.981 C 180.517 311.538,176.189 316.853,175.878 321.592 C 175.341 329.797,186.199 327.575,190.424 318.615 C 193.142 312.853,190.469 308.320,185.333 309.981 M271.292 314.951 C 271.498 314.991,271.835 314.991,272.042 314.951 C 272.248 314.911,272.079 314.879,271.667 314.879 C 271.254 314.879,271.085 314.911,271.292 314.951 M213.172 316.438 C 210.960 318.299,211.924 323.246,215.141 326.551 C 219.562 331.091,223.525 327.548,220.853 321.446 C 219.129 317.508,215.056 314.852,213.172 316.438 M199.528 318.333 C 196.064 319.972,193.299 324.881,193.053 329.833 C 192.653 337.849,198.927 339.531,203.502 332.634 C 208.497 325.107,205.791 315.370,199.528 318.333 M53.333 319.250 C 52.928 319.662,52.635 320.000,52.681 320.000 C 52.726 320.000,53.095 319.662,53.500 319.250 C 53.905 318.837,54.199 318.500,54.153 318.500 C 54.107 318.500,53.738 318.837,53.333 319.250 M264.795 320.954 C 265.094 320.991,265.544 320.990,265.795 320.952 C 266.045 320.914,265.800 320.884,265.250 320.885 C 264.700 320.886,264.495 320.917,264.795 320.954 M34.220 323.333 C 34.220 323.929,34.250 324.173,34.287 323.875 C 34.324 323.577,34.324 323.090,34.287 322.792 C 34.250 322.494,34.220 322.737,34.220 323.333 M270.750 323.167 C 271.108 323.533,271.438 323.833,271.484 323.833 C 271.530 323.833,271.275 323.533,270.917 323.167 C 270.559 322.800,270.228 322.500,270.182 322.500 C 270.137 322.500,270.392 322.800,270.750 323.167 M42.705 327.167 C 42.705 327.487,42.740 327.619,42.782 327.458 C 42.823 327.298,42.823 327.035,42.782 326.875 C 42.740 326.715,42.705 326.846,42.705 327.167 M242.575 327.542 L 241.917 328.250 242.625 327.591 C 243.015 327.229,243.333 326.910,243.333 326.883 C 243.333 326.757,243.188 326.883,242.575 327.542 M273.212 328.833 C 273.212 329.246,273.245 329.415,273.284 329.208 C 273.324 329.002,273.324 328.665,273.284 328.458 C 273.245 328.252,273.212 328.421,273.212 328.833 M59.824 330.125 L 59.250 330.750 59.875 330.176 C 60.457 329.641,60.577 329.500,60.449 329.500 C 60.422 329.500,60.140 329.781,59.824 330.125 M39.375 332.115 C 39.535 332.157,39.798 332.157,39.958 332.115 C 40.119 332.073,39.987 332.039,39.667 332.039 C 39.346 332.039,39.215 332.073,39.375 332.115 M285.542 332.782 C 285.702 332.823,285.965 332.823,286.125 332.782 C 286.285 332.740,286.154 332.705,285.833 332.705 C 285.512 332.705,285.381 332.740,285.542 332.782 M52.794 333.785 C 53.001 333.824,53.301 333.823,53.460 333.781 C 53.620 333.739,53.450 333.707,53.083 333.709 C 52.717 333.711,52.586 333.745,52.794 333.785 M60.542 341.250 C 60.544 341.617,60.578 341.747,60.618 341.540 C 60.658 341.332,60.656 341.032,60.615 340.873 C 60.573 340.714,60.540 340.883,60.542 341.250 M249.826 341.125 C 251.651 341.167,252.132 341.230,252.409 341.463 C 252.749 341.749,252.749 341.749,252.433 341.375 C 252.129 341.016,252.016 341.002,249.849 341.036 L 247.583 341.073 249.826 341.125 M39.913 343.042 L 38.583 344.417 39.958 343.087 C 40.715 342.356,41.333 341.737,41.333 341.712 C 41.333 341.591,41.147 341.765,39.913 343.042 M126.000 342.219 C 126.000 342.248,126.244 342.491,126.542 342.760 L 127.083 343.250 126.594 342.708 C 126.138 342.203,126.000 342.090,126.000 342.219 M61.167 343.552 C 61.167 343.581,61.410 343.825,61.708 344.094 L 62.250 344.583 61.760 344.042 C 61.304 343.537,61.167 343.423,61.167 343.552 M129.045 349.000 C 129.045 349.412,129.078 349.581,129.118 349.375 C 129.157 349.169,129.157 348.831,129.118 348.625 C 129.078 348.419,129.045 348.587,129.045 349.000 M22.052 352.250 C 22.053 352.800,22.084 353.005,22.121 352.705 C 22.158 352.406,22.157 351.956,22.119 351.705 C 22.081 351.455,22.051 351.700,22.052 352.250 M66.711 351.620 C 66.964 351.658,67.339 351.657,67.544 351.617 C 67.749 351.578,67.542 351.546,67.083 351.548 C 66.625 351.549,66.457 351.581,66.711 351.620 M62.205 354.667 C 62.205 354.988,62.240 355.119,62.282 354.958 C 62.323 354.798,62.323 354.535,62.282 354.375 C 62.240 354.215,62.205 354.346,62.205 354.667 M24.333 357.917 C 24.644 358.238,24.936 358.500,24.982 358.500 C 25.028 358.500,24.811 358.238,24.500 357.917 C 24.189 357.596,23.897 357.333,23.851 357.333 C 23.805 357.333,24.022 357.596,24.333 357.917 M70.625 360.118 C 70.831 360.157,71.169 360.157,71.375 360.118 C 71.581 360.078,71.412 360.045,71.000 360.045 C 70.587 360.045,70.419 360.078,70.625 360.118 M31.405 360.291 C 32.906 360.325,33.820 360.415,33.989 360.547 C 34.219 360.726,34.223 360.715,34.021 360.458 C 33.820 360.202,33.509 360.171,31.438 360.203 L 29.083 360.240 31.405 360.291 M34.399 363.083 C 34.399 364.367,34.426 364.870,34.457 364.201 C 34.489 363.532,34.489 362.482,34.457 361.868 C 34.425 361.253,34.399 361.800,34.399 363.083 M36.667 370.250 C 36.978 370.571,37.270 370.833,37.315 370.833 C 37.361 370.833,37.144 370.571,36.833 370.250 C 36.522 369.929,36.230 369.667,36.185 369.667 C 36.139 369.667,36.356 369.929,36.667 370.250 M74.019 377.586 C 69.358 378.894,66.438 383.411,67.317 387.954 C 67.430 388.535,67.407 388.673,67.185 388.737 C 66.626 388.901,57.291 391.408,54.417 392.167 C 52.767 392.602,48.417 393.768,44.750 394.757 C 37.142 396.808,37.044 396.829,36.902 396.393 C 34.424 388.786,23.943 388.016,20.329 395.175 C 19.805 396.214,19.280 398.487,19.363 399.359 L 19.417 399.917 54.208 399.959 C 81.989 399.992,89.000 399.959,88.998 399.792 C 88.976 397.417,86.191 393.578,83.833 392.671 C 82.952 392.332,82.943 392.286,83.564 391.362 C 88.082 384.648,81.697 375.432,74.019 377.586 M144.663 389.958 L 143.250 391.417 144.708 390.004 C 146.063 388.691,146.243 388.500,146.121 388.500 C 146.096 388.500,145.440 389.156,144.663 389.958 M141.552 396.417 C 141.553 396.967,141.584 397.172,141.621 396.872 C 141.658 396.572,141.657 396.122,141.619 395.872 C 141.581 395.622,141.551 395.867,141.552 396.417 M130.208 398.786 C 130.460 398.824,130.873 398.824,131.125 398.786 C 131.377 398.748,131.171 398.717,130.667 398.717 C 130.162 398.717,129.956 398.748,130.208 398.786 M125.942 399.872 C 125.836 399.940,127.550 399.981,129.750 399.964 C 133.782 399.933,133.407 399.872,128.692 399.793 C 127.284 399.769,126.047 399.805,125.942 399.872 M148.779 399.958 C 152.370 399.983,158.295 399.983,161.946 399.958 C 165.597 399.933,162.658 399.913,155.417 399.913 C 148.175 399.913,145.188 399.933,148.779 399.958 " stroke="none" fill="#f4ebdc" fill-rule="evenodd"></path><path id="path4" d="M199.833 7.917 L 199.833 15.833 199.232 15.833 C 194.807 15.833,190.912 20.054,190.927 24.833 C 190.952 32.867,200.580 36.805,206.208 31.083 L 207.355 29.917 208.553 31.095 C 214.911 37.351,225.109 31.946,223.669 23.083 C 223.062 19.348,219.085 15.833,215.465 15.833 L 214.833 15.833 214.833 7.917 L 214.833 0.000 207.333 0.000 L 199.833 0.000 199.833 7.917 M342.167 0.177 C 342.167 0.274,342.558 0.767,343.036 1.273 C 345.362 3.732,349.219 4.359,352.370 2.791 C 353.370 2.293,355.333 0.564,355.333 0.180 C 355.333 0.054,353.353 0.000,348.750 0.000 C 344.224 0.000,342.167 0.055,342.167 0.177 M166.627 0.285 C 166.834 0.324,167.134 0.323,167.294 0.281 C 167.453 0.239,167.283 0.207,166.917 0.209 C 166.550 0.211,166.420 0.245,166.627 0.285 M331.297 2.759 C 329.834 3.113,328.380 3.896,326.670 5.249 C 319.392 11.008,319.873 21.404,327.326 19.421 C 337.291 16.769,341.202 0.357,331.297 2.759 M86.406 7.208 L 85.917 7.750 86.458 7.260 C 86.756 6.991,87.000 6.748,87.000 6.719 C 87.000 6.590,86.862 6.703,86.406 7.208 M359.368 8.943 C 357.546 9.335,356.973 12.557,358.186 15.592 C 360.813 22.163,367.265 23.878,367.244 18.000 C 367.228 13.290,362.805 8.204,359.368 8.943 M265.833 9.046 C 265.833 9.071,266.415 9.652,267.125 10.338 L 268.417 11.583 267.171 10.292 C 266.014 9.092,265.833 8.924,265.833 9.046 M79.625 9.951 C 79.831 9.991,80.169 9.991,80.375 9.951 C 80.581 9.911,80.412 9.879,80.000 9.879 C 79.587 9.879,79.419 9.911,79.625 9.951 M345.833 10.892 C 341.546 12.048,337.781 19.558,338.675 25.167 C 340.253 35.058,351.587 28.033,351.582 17.167 C 351.581 12.278,349.423 9.923,345.833 10.892 M23.220 13.667 C 23.220 14.262,23.250 14.506,23.287 14.208 C 23.324 13.910,23.324 13.423,23.287 13.125 C 23.250 12.827,23.220 13.071,23.220 13.667 M41.209 13.583 C 41.211 13.950,41.245 14.080,41.285 13.873 C 41.324 13.666,41.323 13.366,41.281 13.206 C 41.239 13.047,41.207 13.217,41.209 13.583 M147.212 15.333 C 147.212 15.746,147.245 15.915,147.284 15.708 C 147.324 15.502,147.324 15.165,147.284 14.958 C 147.245 14.752,147.212 14.921,147.212 15.333 M25.167 19.385 C 25.167 19.414,25.410 19.658,25.708 19.927 L 26.250 20.417 25.760 19.875 C 25.304 19.370,25.167 19.257,25.167 19.385 M38.324 20.292 L 37.750 20.917 38.375 20.342 C 38.719 20.026,39.000 19.745,39.000 19.717 C 39.000 19.590,38.859 19.710,38.324 20.292 M75.822 39.822 C 67.888 41.941,66.606 52.635,73.825 56.482 C 74.826 57.015,76.536 57.493,77.458 57.498 L 78.000 57.500 78.000 73.227 L 78.000 88.954 77.069 89.064 C 69.599 89.941,66.382 99.036,71.667 104.336 C 75.224 107.904,80.799 107.902,84.371 104.330 L 85.495 103.206 86.647 104.337 C 92.210 109.801,101.460 106.311,101.958 98.560 C 102.271 93.683,98.114 89.000,93.473 89.000 L 93.000 89.000 93.000 73.250 L 93.000 57.500 93.708 57.498 C 96.303 57.491,99.597 55.362,100.895 52.854 C 105.075 44.775,96.475 36.331,88.569 40.752 C 87.598 41.295,85.667 43.029,85.667 43.358 C 85.667 43.435,85.160 42.985,84.542 42.358 C 83.923 41.731,83.192 41.097,82.917 40.950 C 80.262 39.524,78.179 39.193,75.822 39.822 M248.667 53.000 C 248.862 53.275,249.060 53.500,249.106 53.500 C 249.152 53.500,249.029 53.275,248.833 53.000 C 248.638 52.725,248.440 52.500,248.394 52.500 C 248.348 52.500,248.471 52.725,248.667 53.000 M238.539 54.833 C 238.539 55.154,238.573 55.285,238.615 55.125 C 238.657 54.965,238.657 54.702,238.615 54.542 C 238.573 54.381,238.539 54.512,238.539 54.833 M373.875 58.282 C 374.035 58.323,374.298 58.323,374.458 58.282 C 374.619 58.240,374.488 58.205,374.167 58.205 C 373.846 58.205,373.715 58.240,373.875 58.282 M260.573 59.708 L 260.083 60.250 260.625 59.760 C 260.923 59.491,261.167 59.248,261.167 59.219 C 261.167 59.090,261.029 59.203,260.573 59.708 M297.372 66.000 C 297.372 66.321,297.406 66.452,297.448 66.292 C 297.490 66.131,297.490 65.869,297.448 65.708 C 297.406 65.548,297.372 65.679,297.372 66.000 M264.073 68.375 L 263.583 68.917 264.125 68.427 C 264.423 68.158,264.667 67.914,264.667 67.885 C 264.667 67.757,264.529 67.870,264.073 68.375 M141.667 71.488 C 141.667 71.573,141.535 71.677,141.375 71.718 C 141.156 71.776,141.176 71.799,141.458 71.814 C 141.689 71.826,141.833 71.737,141.833 71.583 C 141.833 71.446,141.796 71.333,141.750 71.333 C 141.704 71.333,141.667 71.403,141.667 71.488 M300.000 72.417 C 300.311 72.737,300.603 73.000,300.649 73.000 C 300.695 73.000,300.478 72.737,300.167 72.417 C 299.856 72.096,299.564 71.833,299.518 71.833 C 299.472 71.833,299.689 72.096,300.000 72.417 M242.468 78.458 C 242.174 78.800,241.954 79.167,242.042 79.167 C 242.076 79.167,242.270 78.942,242.474 78.667 C 242.875 78.123,242.872 77.988,242.468 78.458 M224.460 81.618 C 224.668 81.658,224.968 81.656,225.127 81.615 C 225.286 81.573,225.117 81.540,224.750 81.542 C 224.383 81.544,224.253 81.578,224.460 81.618 M240.717 83.667 C 240.717 84.171,240.748 84.377,240.786 84.125 C 240.824 83.873,240.824 83.460,240.786 83.208 C 240.748 82.956,240.717 83.162,240.717 83.667 M133.750 87.167 C 134.108 87.533,134.438 87.833,134.484 87.833 C 134.530 87.833,134.275 87.533,133.917 87.167 C 133.559 86.800,133.228 86.500,133.182 86.500 C 133.137 86.500,133.392 86.800,133.750 87.167 M146.185 87.042 C 146.225 87.065,146.744 87.533,147.337 88.083 L 148.417 89.083 147.422 88.042 C 146.875 87.469,146.356 87.000,146.269 87.000 C 146.182 87.000,146.144 87.019,146.185 87.042 M150.250 91.000 C 151.255 92.008,152.115 92.833,152.161 92.833 C 152.207 92.833,151.422 92.008,150.417 91.000 C 149.411 89.992,148.552 89.167,148.506 89.167 C 148.460 89.167,149.245 89.992,150.250 91.000 M224.458 89.622 C 224.848 89.657,225.485 89.657,225.875 89.622 C 226.265 89.587,225.946 89.558,225.167 89.558 C 224.387 89.558,224.069 89.587,224.458 89.622 M271.548 92.250 C 271.549 92.708,271.581 92.876,271.620 92.623 C 271.658 92.369,271.657 91.994,271.617 91.789 C 271.578 91.584,271.546 91.792,271.548 92.250 M153.083 93.833 C 153.535 94.292,153.942 94.667,153.987 94.667 C 154.033 94.667,153.701 94.292,153.250 93.833 C 152.799 93.375,152.392 93.000,152.346 93.000 C 152.300 93.000,152.632 93.375,153.083 93.833 M0.040 100.458 L 0.083 106.917 0.839 107.316 C 2.496 108.191,4.147 107.274,4.815 105.107 C 5.989 101.293,4.021 95.871,0.858 94.208 C -0.041 93.736,-0.007 93.482,0.040 100.458 M398.417 94.310 C 395.626 96.034,396.086 102.882,399.210 106.125 C 399.497 106.423,399.792 106.667,399.866 106.667 C 399.940 106.667,400.000 103.817,400.000 100.333 L 400.000 94.000 399.458 94.001 C 399.160 94.001,398.692 94.140,398.417 94.310 M155.917 96.667 C 156.922 97.675,157.782 98.500,157.828 98.500 C 157.873 98.500,157.089 97.675,156.083 96.667 C 155.078 95.658,154.218 94.833,154.172 94.833 C 154.127 94.833,154.911 95.658,155.917 96.667 M269.242 97.875 L 268.583 98.583 269.292 97.925 C 269.950 97.312,270.077 97.167,269.950 97.167 C 269.923 97.167,269.605 97.485,269.242 97.875 M159.750 100.500 C 160.755 101.508,161.615 102.333,161.661 102.333 C 161.707 102.333,160.922 101.508,159.917 100.500 C 158.911 99.492,158.052 98.667,158.006 98.667 C 157.960 98.667,158.745 99.492,159.750 100.500 M263.875 100.282 C 264.035 100.323,264.298 100.323,264.458 100.282 C 264.619 100.240,264.487 100.205,264.167 100.205 C 263.846 100.205,263.715 100.240,263.875 100.282 M240.375 101.083 C 240.377 101.450,240.411 101.580,240.451 101.373 C 240.491 101.166,240.490 100.866,240.448 100.706 C 240.406 100.547,240.374 100.717,240.375 101.083 M163.583 104.333 C 164.589 105.342,165.448 106.167,165.494 106.167 C 165.540 106.167,164.755 105.342,163.750 104.333 C 162.745 103.325,161.885 102.500,161.839 102.500 C 161.793 102.500,162.578 103.325,163.583 104.333 M380.250 102.673 C 370.219 103.768,377.898 116.273,388.583 116.242 C 399.223 116.211,394.084 104.199,382.780 102.676 C 382.063 102.579,381.463 102.510,381.446 102.523 C 381.430 102.535,380.892 102.603,380.250 102.673 M165.667 106.379 C 165.667 106.404,166.248 106.986,166.958 107.671 L 168.250 108.917 167.004 107.625 C 165.847 106.425,165.667 106.257,165.667 106.379 M19.667 112.267 C 18.821 112.493,16.162 113.873,13.750 115.337 C 13.200 115.671,12.412 116.135,12.000 116.367 C 11.588 116.600,11.020 116.925,10.738 117.090 C 10.235 117.383,10.189 117.379,8.155 116.860 C 5.156 116.094,3.465 116.182,1.419 117.210 C -0.086 117.966,0.011 117.474,0.005 124.367 L 0.000 130.483 0.551 130.903 C 1.285 131.463,2.116 131.802,3.908 132.274 C 5.684 132.742,5.423 132.511,6.718 134.758 C 7.297 135.762,8.355 137.596,9.070 138.833 C 11.822 143.601,13.376 144.723,17.250 144.739 C 24.025 144.768,27.214 138.169,23.498 131.807 C 22.234 129.643,22.069 128.983,22.708 128.650 C 27.805 126.000,29.410 124.064,29.619 120.314 C 29.919 114.966,24.864 110.878,19.667 112.267 M337.042 116.448 C 337.202 116.490,337.465 116.490,337.625 116.448 C 337.785 116.406,337.654 116.372,337.333 116.372 C 337.012 116.372,336.881 116.406,337.042 116.448 M398.935 119.054 C 396.171 122.288,396.375 127.119,399.396 129.991 L 400.000 130.565 400.000 124.366 C 400.000 120.691,399.937 118.167,399.846 118.167 C 399.762 118.167,399.351 118.566,398.935 119.054 M329.573 119.042 L 329.083 119.583 329.625 119.094 C 330.130 118.638,330.243 118.500,330.115 118.500 C 330.086 118.500,329.842 118.744,329.573 119.042 M168.493 121.875 C 168.902 122.310,169.258 122.667,169.285 122.667 C 169.410 122.667,169.278 122.517,168.542 121.826 L 167.750 121.083 168.493 121.875 M181.244 122.042 L 180.417 122.917 181.292 122.090 C 181.773 121.635,182.167 121.241,182.167 121.215 C 182.167 121.090,182.012 121.229,181.244 122.042 M376.664 121.333 C 370.819 122.325,368.527 126.592,372.003 130.011 C 376.383 134.320,386.840 134.178,389.623 129.771 C 392.534 125.159,384.594 119.988,376.664 121.333 M254.319 130.891 C 249.519 132.866,246.721 141.291,250.291 143.020 C 253.458 144.553,258.861 138.337,258.450 133.635 C 258.221 131.018,256.611 129.948,254.319 130.891 M391.387 137.008 C 389.367 137.407,386.123 139.944,384.972 142.024 C 382.376 146.715,385.066 149.795,389.667 147.400 C 396.090 144.056,397.455 135.808,391.387 137.008 M226.236 141.814 C 222.475 142.891,220.004 146.844,220.617 150.803 C 220.912 152.710,221.603 153.874,223.682 155.963 C 225.983 158.276,225.976 158.165,223.946 160.208 C 218.894 165.293,219.471 171.626,225.226 174.260 C 229.178 176.070,231.618 175.153,236.881 169.880 L 240.250 166.505 242.186 166.502 C 245.335 166.498,247.426 165.839,248.903 164.384 C 254.366 159.005,250.855 150.771,243.000 150.538 L 240.750 150.472 236.917 146.673 C 234.306 144.086,232.817 142.737,232.250 142.444 C 230.435 141.506,228.148 141.267,226.236 141.814 M266.250 143.321 C 259.475 144.212,254.811 149.134,257.408 152.654 C 260.894 157.380,272.865 155.855,275.916 150.298 C 278.198 146.142,273.051 142.428,266.250 143.321 M151.833 147.219 C 151.833 147.248,152.077 147.491,152.375 147.760 L 152.917 148.250 152.427 147.708 C 151.971 147.203,151.833 147.090,151.833 147.219 M324.249 156.167 C 325.039 157.091,325.050 157.101,324.869 156.750 C 324.775 156.567,324.484 156.229,324.224 156.001 L 323.750 155.585 324.249 156.167 M102.958 160.784 C 103.165 160.824,103.502 160.824,103.708 160.784 C 103.915 160.745,103.746 160.712,103.333 160.712 C 102.921 160.712,102.752 160.745,102.958 160.784 M375.875 161.250 C 375.877 161.617,375.911 161.747,375.951 161.540 C 375.991 161.332,375.990 161.032,375.948 160.873 C 375.906 160.714,375.874 160.883,375.875 161.250 M261.917 161.831 C 256.475 163.212,255.060 166.764,258.568 170.240 C 264.105 175.728,276.434 174.641,276.413 168.667 C 276.397 164.188,268.080 160.266,261.917 161.831 M372.507 169.006 C 372.030 169.414,371.970 169.534,372.157 169.707 C 372.326 169.864,372.353 169.865,372.267 169.712 C 372.200 169.592,372.378 169.303,372.701 169.009 C 373.409 168.365,373.260 168.363,372.507 169.006 M373.160 170.542 C 373.850 171.278,374.000 171.410,374.000 171.285 C 374.000 171.258,373.644 170.902,373.208 170.493 L 372.417 169.750 373.160 170.542 M153.240 173.375 L 152.750 173.917 153.292 173.427 C 153.590 173.158,153.833 172.914,153.833 172.885 C 153.833 172.757,153.696 172.870,153.240 173.375 M250.250 173.993 C 248.747 174.761,248.273 176.801,248.990 179.424 C 250.501 184.956,256.252 188.594,258.016 185.135 C 260.209 180.836,254.078 172.039,250.250 173.993 M149.667 182.917 C 148.984 183.604,148.463 184.167,148.508 184.167 C 148.554 184.167,149.150 183.604,149.833 182.917 C 150.516 182.229,151.037 181.667,150.992 181.667 C 150.946 181.667,150.350 182.229,149.667 182.917 M167.000 182.210 C 167.000 182.234,168.481 183.715,170.292 185.502 L 173.583 188.750 170.335 185.458 C 167.317 182.400,167.000 182.091,167.000 182.210 M104.872 182.833 C 104.872 183.154,104.906 183.285,104.948 183.125 C 104.990 182.965,104.990 182.702,104.948 182.542 C 104.906 182.381,104.872 182.512,104.872 182.833 M146.414 186.208 L 144.583 188.083 146.458 186.253 C 148.200 184.553,148.409 184.333,148.289 184.333 C 148.264 184.333,147.421 185.177,146.414 186.208 M6.573 188.708 L 6.083 189.250 6.625 188.760 C 6.923 188.491,7.167 188.248,7.167 188.219 C 7.167 188.090,7.029 188.203,6.573 188.708 M387.667 204.552 C 387.667 204.581,387.910 204.825,388.208 205.094 L 388.750 205.583 388.260 205.042 C 387.804 204.537,387.667 204.423,387.667 204.552 M254.833 207.263 C 245.412 209.742,246.043 223.471,255.643 224.870 L 257.000 225.068 257.000 240.765 L 257.000 256.461 255.896 256.579 C 250.652 257.141,246.988 262.457,248.279 267.632 C 250.145 275.119,259.887 276.923,264.384 270.615 C 264.490 270.467,264.549 270.477,264.620 270.654 C 265.690 273.352,271.476 275.242,274.909 274.015 C 283.907 270.802,282.439 257.672,272.958 256.566 L 272.000 256.454 272.000 240.764 L 272.000 225.074 273.342 224.862 C 279.910 223.829,283.104 216.386,279.351 210.860 C 276.194 206.210,269.517 205.725,265.481 209.852 L 264.379 210.979 264.149 210.550 C 262.832 208.090,258.074 206.410,254.833 207.263 M17.333 208.083 C 16.928 208.496,16.635 208.833,16.681 208.833 C 16.726 208.833,17.095 208.496,17.500 208.083 C 17.905 207.671,18.199 207.333,18.153 207.333 C 18.107 207.333,17.738 207.671,17.333 208.083 M382.583 208.167 C 383.035 208.625,383.442 209.000,383.487 209.000 C 383.533 209.000,383.201 208.625,382.750 208.167 C 382.299 207.708,381.892 207.333,381.846 207.333 C 381.800 207.333,382.132 207.708,382.583 208.167 M203.042 208.782 C 203.202 208.823,203.465 208.823,203.625 208.782 C 203.785 208.740,203.654 208.705,203.333 208.705 C 203.012 208.705,202.881 208.740,203.042 208.782 M25.991 211.625 L 25.417 212.250 26.042 211.676 C 26.623 211.141,26.743 211.000,26.616 211.000 C 26.588 211.000,26.307 211.281,25.991 211.625 M384.705 212.167 C 384.705 212.487,384.740 212.619,384.782 212.458 C 384.823 212.298,384.823 212.035,384.782 211.875 C 384.740 211.715,384.705 211.846,384.705 212.167 M74.250 212.240 C 70.019 214.672,71.035 224.210,76.026 228.918 C 80.765 233.389,85.412 230.269,84.670 223.114 C 83.943 216.101,78.114 210.018,74.250 212.240 M212.872 217.667 C 212.872 217.987,212.906 218.119,212.948 217.958 C 212.990 217.798,212.990 217.535,212.948 217.375 C 212.906 217.215,212.872 217.346,212.872 217.667 M8.063 221.333 C 8.063 222.387,8.090 222.819,8.123 222.292 C 8.156 221.765,8.156 220.902,8.123 220.375 C 8.090 219.848,8.063 220.279,8.063 221.333 M391.894 221.083 C 391.895 222.000,391.923 222.354,391.956 221.869 C 391.990 221.385,391.990 220.635,391.956 220.203 C 391.921 219.770,391.894 220.167,391.894 221.083 M95.871 220.579 C 93.449 221.707,91.089 225.200,90.633 228.333 C 89.857 233.672,94.554 234.447,98.169 229.576 C 102.014 224.396,100.490 218.429,95.871 220.579 M56.743 222.394 C 52.901 224.184,53.919 230.622,58.819 235.511 C 64.693 241.373,71.378 239.770,70.012 232.828 C 68.756 226.441,61.055 220.386,56.743 222.394 M1.000 238.917 C 1.498 239.421,1.943 239.833,1.989 239.833 C 2.034 239.833,1.665 239.421,1.167 238.917 C 0.669 238.412,0.224 238.000,0.178 238.000 C 0.132 238.000,0.502 238.412,1.000 238.917 M79.667 238.302 C 74.823 239.569,72.292 245.462,74.743 249.768 C 74.998 250.217,75.428 250.996,75.698 251.500 L 76.189 252.417 74.914 257.083 C 73.485 262.315,73.296 263.615,73.725 265.287 C 75.286 271.375,82.389 273.492,86.982 269.240 C 88.266 268.051,88.923 266.752,89.661 263.943 C 90.367 261.258,90.242 261.324,93.153 262.092 C 97.407 263.214,99.922 262.708,102.399 260.231 C 105.794 256.836,105.178 250.900,101.151 248.196 C 99.926 247.374,99.049 247.078,93.364 245.574 L 90.312 244.766 89.706 243.675 C 88.654 241.779,88.063 240.934,87.302 240.232 C 85.173 238.270,82.437 237.578,79.667 238.302 M398.573 238.708 L 398.083 239.250 398.625 238.760 C 399.130 238.304,399.243 238.167,399.115 238.167 C 399.086 238.167,398.842 238.410,398.573 238.708 M211.375 239.782 C 211.535 239.823,211.798 239.823,211.958 239.782 C 212.119 239.740,211.987 239.705,211.667 239.705 C 211.346 239.705,211.215 239.740,211.375 239.782 M2.667 240.583 C 2.978 240.904,3.270 241.167,3.315 241.167 C 3.361 241.167,3.144 240.904,2.833 240.583 C 2.522 240.262,2.230 240.000,2.185 240.000 C 2.139 240.000,2.356 240.262,2.667 240.583 M13.991 240.792 L 13.417 241.417 14.042 240.842 C 14.385 240.526,14.667 240.245,14.667 240.217 C 14.667 240.090,14.526 240.210,13.991 240.792 M56.583 244.178 C 51.451 244.716,49.314 248.303,52.727 250.651 C 55.647 252.660,61.721 252.387,63.983 250.145 C 67.073 247.082,62.680 243.539,56.583 244.178 M202.458 277.284 C 202.665 277.324,203.002 277.324,203.208 277.284 C 203.415 277.245,203.246 277.212,202.833 277.212 C 202.421 277.212,202.252 277.245,202.458 277.284 M197.158 279.625 L 196.583 280.250 197.208 279.676 C 197.552 279.360,197.833 279.078,197.833 279.051 C 197.833 278.923,197.692 279.043,197.158 279.625 M116.324 291.125 L 115.750 291.750 116.375 291.176 C 116.957 290.641,117.077 290.500,116.949 290.500 C 116.922 290.500,116.640 290.781,116.324 291.125 M143.000 295.719 C 143.000 295.748,143.244 295.991,143.542 296.260 L 144.083 296.750 143.594 296.208 C 143.138 295.703,143.000 295.590,143.000 295.719 M197.176 296.938 C 196.980 297.270,196.847 297.569,196.880 297.602 C 196.914 297.636,197.109 297.364,197.314 296.998 C 197.781 296.168,197.662 296.115,197.176 296.938 M178.042 296.782 C 178.202 296.823,178.465 296.823,178.625 296.782 C 178.785 296.740,178.654 296.705,178.333 296.705 C 178.012 296.705,177.881 296.740,178.042 296.782 M180.127 296.785 C 180.334 296.824,180.634 296.823,180.794 296.781 C 180.953 296.739,180.783 296.707,180.417 296.709 C 180.050 296.711,179.920 296.745,180.127 296.785 M172.372 300.667 C 172.372 300.987,172.406 301.119,172.448 300.958 C 172.490 300.798,172.490 300.535,172.448 300.375 C 172.406 300.215,172.372 300.346,172.372 300.667 M186.372 300.667 C 186.372 300.987,186.406 301.119,186.448 300.958 C 186.490 300.798,186.490 300.535,186.448 300.375 C 186.406 300.215,186.372 300.346,186.372 300.667 M282.709 302.083 C 282.711 302.450,282.745 302.580,282.785 302.373 C 282.824 302.166,282.823 301.866,282.781 301.706 C 282.739 301.547,282.707 301.717,282.709 302.083 M173.333 302.750 C 173.644 303.071,173.936 303.333,173.982 303.333 C 174.028 303.333,173.811 303.071,173.500 302.750 C 173.189 302.429,172.897 302.167,172.851 302.167 C 172.805 302.167,173.022 302.429,173.333 302.750 M185.240 302.875 L 184.750 303.417 185.292 302.927 C 185.797 302.471,185.910 302.333,185.781 302.333 C 185.752 302.333,185.509 302.577,185.240 302.875 M261.389 308.500 C 261.389 309.188,261.419 309.469,261.455 309.125 C 261.491 308.781,261.491 308.219,261.455 307.875 C 261.419 307.531,261.389 307.813,261.389 308.500 M267.548 310.083 C 267.549 310.542,267.581 310.709,267.620 310.456 C 267.658 310.203,267.657 309.828,267.617 309.623 C 267.578 309.418,267.546 309.625,267.548 310.083 M202.455 310.787 C 202.750 310.824,203.275 310.824,203.621 310.788 C 203.967 310.752,203.725 310.722,203.083 310.721 C 202.442 310.721,202.159 310.750,202.455 310.787 M332.158 311.625 L 331.583 312.250 332.208 311.676 C 332.552 311.360,332.833 311.078,332.833 311.051 C 332.833 310.923,332.692 311.043,332.158 311.625 M278.240 311.708 L 277.750 312.250 278.292 311.760 C 278.797 311.304,278.910 311.167,278.781 311.167 C 278.752 311.167,278.509 311.410,278.240 311.708 M255.167 311.552 C 255.167 311.581,255.410 311.825,255.708 312.094 L 256.250 312.583 255.760 312.042 C 255.304 311.537,255.167 311.423,255.167 311.552 M179.994 313.292 L 179.083 314.250 180.042 313.339 C 180.569 312.838,181.000 312.407,181.000 312.381 C 181.000 312.257,180.841 312.401,179.994 313.292 M191.545 314.167 C 191.545 314.579,191.578 314.748,191.618 314.542 C 191.657 314.335,191.657 313.998,191.618 313.792 C 191.578 313.585,191.545 313.754,191.545 314.167 M282.158 316.125 L 281.583 316.750 282.208 316.176 C 282.552 315.860,282.833 315.578,282.833 315.551 C 282.833 315.423,282.692 315.543,282.158 316.125 M201.294 317.785 C 201.501 317.824,201.801 317.823,201.960 317.781 C 202.120 317.739,201.950 317.707,201.583 317.709 C 201.217 317.711,201.086 317.745,201.294 317.785 M37.042 318.448 C 37.202 318.490,37.465 318.490,37.625 318.448 C 37.785 318.406,37.654 318.372,37.333 318.372 C 37.012 318.372,36.881 318.406,37.042 318.448 M211.879 319.333 C 211.879 319.746,211.911 319.915,211.951 319.708 C 211.991 319.502,211.991 319.165,211.951 318.958 C 211.911 318.752,211.879 318.921,211.879 319.333 M197.075 320.042 L 196.417 320.750 197.125 320.091 C 197.784 319.478,197.910 319.333,197.784 319.333 C 197.757 319.333,197.438 319.652,197.075 320.042 M64.042 320.917 C 64.044 321.283,64.078 321.414,64.118 321.206 C 64.158 320.999,64.156 320.699,64.115 320.540 C 64.073 320.380,64.040 320.550,64.042 320.917 M324.575 324.708 L 323.917 325.417 324.625 324.758 C 325.284 324.145,325.410 324.000,325.284 324.000 C 325.257 324.000,324.938 324.319,324.575 324.708 M221.717 325.167 C 221.717 325.671,221.748 325.877,221.786 325.625 C 221.824 325.373,221.824 324.960,221.786 324.708 C 221.748 324.456,221.717 324.662,221.717 325.167 M250.125 325.125 C 251.523 325.153,253.810 325.153,255.208 325.125 C 256.606 325.097,255.463 325.074,252.667 325.074 C 249.871 325.074,248.727 325.097,250.125 325.125 M214.993 326.542 C 215.684 327.278,215.833 327.410,215.833 327.285 C 215.833 327.258,215.477 326.902,215.042 326.493 L 214.250 325.750 214.993 326.542 M283.625 326.621 C 283.923 326.658,284.410 326.658,284.708 326.621 C 285.006 326.584,284.762 326.553,284.167 326.553 C 283.571 326.553,283.327 326.584,283.625 326.621 M179.628 326.787 C 179.928 326.825,180.378 326.824,180.628 326.786 C 180.878 326.748,180.633 326.717,180.083 326.718 C 179.533 326.719,179.328 326.750,179.628 326.787 M48.879 328.833 C 48.879 329.246,48.911 329.415,48.951 329.208 C 48.991 329.002,48.991 328.665,48.951 328.458 C 48.911 328.252,48.879 328.421,48.879 328.833 M72.792 330.287 C 73.090 330.324,73.577 330.324,73.875 330.287 C 74.173 330.250,73.929 330.220,73.333 330.220 C 72.737 330.220,72.494 330.250,72.792 330.287 M192.875 330.750 C 192.877 331.117,192.911 331.247,192.951 331.040 C 192.991 330.832,192.990 330.532,192.948 330.373 C 192.906 330.214,192.874 330.383,192.875 330.750 M322.045 330.833 C 322.045 331.246,322.078 331.415,322.118 331.208 C 322.157 331.002,322.157 330.665,322.118 330.458 C 322.078 330.252,322.045 330.421,322.045 330.833 M362.833 332.008 C 363.411 332.401,363.741 332.515,363.333 332.182 C 363.104 331.994,362.842 331.840,362.750 331.840 C 362.658 331.839,362.696 331.915,362.833 332.008 M380.875 333.788 C 381.219 333.824,381.781 333.824,382.125 333.788 C 382.469 333.752,382.188 333.723,381.500 333.723 C 380.813 333.723,380.531 333.752,380.875 333.788 M270.740 334.708 L 270.250 335.250 270.792 334.760 C 271.297 334.304,271.410 334.167,271.281 334.167 C 271.252 334.167,271.009 334.410,270.740 334.708 M292.667 335.052 C 292.667 335.081,292.910 335.325,293.208 335.594 L 293.750 336.083 293.260 335.542 C 292.804 335.037,292.667 334.923,292.667 335.052 M387.667 336.250 C 387.978 336.571,388.270 336.833,388.315 336.833 C 388.361 336.833,388.144 336.571,387.833 336.250 C 387.522 335.929,387.230 335.667,387.185 335.667 C 387.139 335.667,387.356 335.929,387.667 336.250 M75.406 340.542 L 74.917 341.083 75.458 340.594 C 75.963 340.138,76.077 340.000,75.948 340.000 C 75.919 340.000,75.675 340.244,75.406 340.542 M51.833 341.552 C 51.833 341.581,52.077 341.825,52.375 342.094 L 52.917 342.583 52.427 342.042 C 51.971 341.537,51.833 341.423,51.833 341.552 M31.802 344.291 C 33.114 344.320,35.214 344.319,36.468 344.291 C 37.723 344.263,36.650 344.240,34.083 344.240 C 31.517 344.240,30.490 344.263,31.802 344.291 M266.324 351.125 L 265.750 351.750 266.375 351.176 C 266.719 350.860,267.000 350.578,267.000 350.551 C 267.000 350.423,266.859 350.543,266.324 351.125 M51.740 353.875 L 51.250 354.417 51.792 353.927 C 52.297 353.471,52.410 353.333,52.281 353.333 C 52.252 353.333,52.009 353.577,51.740 353.875 M126.324 355.458 L 125.750 356.083 126.375 355.509 C 126.957 354.974,127.077 354.833,126.949 354.833 C 126.922 354.833,126.640 355.115,126.324 355.458 M113.333 355.052 C 113.333 355.081,113.577 355.325,113.875 355.594 L 114.417 356.083 113.927 355.542 C 113.471 355.037,113.333 354.923,113.333 355.052 M50.407 360.250 C 50.407 363.000,50.430 364.148,50.458 362.802 C 50.486 361.456,50.486 359.206,50.458 357.802 C 50.430 356.398,50.407 357.500,50.407 360.250 M367.333 361.885 C 367.333 361.914,367.577 362.158,367.875 362.427 L 368.417 362.917 367.927 362.375 C 367.471 361.870,367.333 361.757,367.333 361.885 M198.750 366.329 C 192.572 367.051,189.053 373.716,191.871 379.356 C 193.175 381.966,196.528 384.167,199.202 384.167 L 199.833 384.167 199.833 392.083 L 199.833 400.000 207.333 400.000 L 214.833 400.000 214.833 392.083 L 214.833 384.167 215.596 384.167 C 221.394 384.167,225.513 377.136,223.032 371.475 C 220.390 365.445,211.263 364.438,207.715 369.785 C 207.473 370.150,207.460 370.142,206.360 369.034 C 204.289 366.947,201.611 365.995,198.750 366.329 M346.333 370.393 C 343.695 371.112,341.587 373.232,340.769 375.989 C 340.226 377.818,340.371 378.963,341.833 384.385 L 343.166 389.328 342.474 390.456 C 340.515 393.646,340.227 396.135,341.493 398.927 L 341.979 400.000 348.705 400.000 L 355.431 400.000 356.323 398.458 C 356.814 397.610,357.238 396.889,357.266 396.856 C 357.293 396.822,358.539 396.475,360.033 396.084 C 361.527 395.694,363.500 395.175,364.417 394.932 C 369.328 393.630,371.686 390.712,371.471 386.204 C 371.215 380.856,366.112 377.718,360.417 379.405 C 357.287 380.332,357.324 380.349,356.590 377.595 C 355.060 371.854,351.123 369.090,346.333 370.393 M244.711 386.120 C 244.964 386.158,245.339 386.157,245.544 386.117 C 245.749 386.078,245.542 386.046,245.083 386.048 C 244.625 386.049,244.457 386.081,244.711 386.120 M323.083 389.680 C 319.275 390.323,317.067 392.718,318.347 394.817 C 320.556 398.441,329.798 398.330,331.672 394.657 C 333.194 391.672,328.251 388.807,323.083 389.680 M240.042 390.250 C 240.044 390.617,240.078 390.747,240.118 390.540 C 240.158 390.332,240.156 390.032,240.115 389.873 C 240.073 389.714,240.040 389.883,240.042 390.250 M23.072 391.750 C 22.620 392.071,22.312 392.333,22.387 392.333 C 22.504 392.333,23.437 391.700,23.908 391.301 C 24.320 390.952,23.806 391.228,23.072 391.750 M34.167 392.219 C 34.167 392.248,34.410 392.491,34.708 392.760 L 35.250 393.250 34.760 392.708 C 34.304 392.203,34.167 392.090,34.167 392.219 M282.135 399.791 C 283.539 399.819,285.789 399.819,287.135 399.791 C 288.482 399.763,287.333 399.740,284.583 399.741 C 281.833 399.741,280.732 399.763,282.135 399.791 " stroke="none" fill="#fbf4ec" fill-rule="evenodd"></path></g></svg>